<svg width="206" height="45" viewBox="0 0 206 45" fill="none" xmlns="http://www.w3.org/2000/svg">
<path d="M5.96322 7.48551C6.80555 9.2504 7.59412 10.8854 8.36476 12.5271C8.98082 13.8463 9.50952 15.2147 10.1928 16.4891C11.1561 18.2921 11.4966 20.1824 11.4563 22.2071C11.4003 25.1187 11.4361 28.0303 11.4563 30.9419C11.4675 32.8344 12.2045 33.578 14.1244 33.5825C19.6847 33.5989 25.2457 33.5989 30.8075 33.5825C32.7856 33.5825 33.5786 32.756 33.5809 30.7627C33.5913 25.2784 33.5913 19.7934 33.5809 14.3076C33.5809 12.1105 32.9088 11.4722 30.6686 11.4655C27.5322 11.4655 24.3959 11.5304 21.2596 11.4251C19.996 11.3933 18.7486 11.1346 17.5766 10.6614C14.4873 9.34894 11.472 7.86402 8.43197 6.43957C8.14298 6.30295 7.87639 6.11705 7.58292 5.94236C12.7355 0.177373 25.8901 -3.30312 36.2579 4.64109C46.6258 12.5853 47.9878 27.9832 39.1837 37.6095C37.0767 39.932 34.5077 41.789 31.6414 43.0617C28.775 44.3343 25.6744 44.9945 22.5382 45C19.4019 45.0054 16.299 44.3561 13.4282 43.0935C10.5575 41.8309 7.98204 39.9828 5.8669 37.6677C-2.85434 28.1557 -1.03079 14.3368 5.96322 7.48551Z" fill="url(#paint0_linear_116:3)"/>
<path d="M73.5754 13.5654V14.4962L64.6812 27.6566H73.5754V30.8885H59.0189V29.9577L67.758 16.7973H59.5877V13.5654H73.5754Z" fill="white"/>
<path d="M85.4688 13.1776C86.7099 13.1776 87.8734 13.4017 88.9593 13.8498C90.0452 14.2808 91.0019 14.9013 91.8292 15.7114C92.6738 16.5043 93.3288 17.4523 93.7942 18.5555C94.2769 19.6587 94.5182 20.8825 94.5182 22.227C94.5182 23.5714 94.2769 24.7952 93.7942 25.8984C93.3288 27.0016 92.6738 27.9582 91.8292 28.7683C91.0019 29.5612 90.0452 30.1817 88.9593 30.6299C87.8734 31.0608 86.7099 31.2763 85.4688 31.2763C84.2278 31.2763 83.0557 31.0608 81.9525 30.6299C80.8666 30.1817 79.9013 29.5612 79.0567 28.7683C78.2294 27.9582 77.5744 27.0016 77.0917 25.8984C76.6263 24.7952 76.3937 23.5714 76.3937 22.227C76.3937 20.8825 76.6263 19.6587 77.0917 18.5555C77.5744 17.4523 78.2294 16.5043 79.0567 15.7114C79.9013 14.9013 80.8666 14.2808 81.9525 13.8498C83.0557 13.4017 84.2278 13.1776 85.4688 13.1776ZM85.4688 16.5647C84.4346 16.5647 83.5038 16.8146 82.6765 17.3145C81.8663 17.8143 81.2286 18.4866 80.7632 19.3312C80.2978 20.1758 80.0651 21.141 80.0651 22.227C80.0651 23.2956 80.2978 24.2609 80.7632 25.1227C81.2286 25.9673 81.8663 26.6396 82.6765 27.1394C83.5038 27.6221 84.4346 27.8634 85.4688 27.8634C86.5031 27.8634 87.4252 27.6221 88.2354 27.1394C89.0455 26.6396 89.6833 25.9673 90.1486 25.1227C90.614 24.2609 90.8467 23.2956 90.8467 22.227C90.8467 21.141 90.614 20.1758 90.1486 19.3312C89.6833 18.4866 89.0455 17.8143 88.2354 17.3145C87.4252 16.8146 86.5031 16.5647 85.4688 16.5647Z" fill="white"/>
<path d="M113.418 13.5654V31.0177H112.126L101.861 20.4429V30.8885H98.2672V13.4362H99.56L109.824 24.1661V13.5654H113.418Z" fill="white"/>
<path d="M126.243 13.1776C127.484 13.1776 128.647 13.4017 129.733 13.8498C130.819 14.2808 131.776 14.9013 132.603 15.7114C133.448 16.5043 134.103 17.4523 134.568 18.5555C135.051 19.6587 135.292 20.8825 135.292 22.227C135.292 23.5714 135.051 24.7952 134.568 25.8984C134.103 27.0016 133.448 27.9582 132.603 28.7683C131.776 29.5612 130.819 30.1817 129.733 30.6299C128.647 31.0608 127.484 31.2763 126.243 31.2763C125.002 31.2763 123.829 31.0608 122.726 30.6299C121.64 30.1817 120.675 29.5612 119.83 28.7683C119.003 27.9582 118.348 27.0016 117.865 25.8984C117.4 24.7952 117.167 23.5714 117.167 22.227C117.167 20.8825 117.4 19.6587 117.865 18.5555C118.348 17.4523 119.003 16.5043 119.83 15.7114C120.675 14.9013 121.64 14.2808 122.726 13.8498C123.829 13.4017 125.002 13.1776 126.243 13.1776ZM126.243 16.5647C125.208 16.5647 124.278 16.8146 123.45 17.3145C122.64 17.8143 122.002 18.4866 121.537 19.3312C121.072 20.1758 120.839 21.141 120.839 22.227C120.839 23.2956 121.072 24.2609 121.537 25.1227C122.002 25.9673 122.64 26.6396 123.45 27.1394C124.278 27.6221 125.208 27.8634 126.243 27.8634C127.277 27.8634 128.199 27.6221 129.009 27.1394C129.819 26.6396 130.457 25.9673 130.922 25.1227C131.388 24.2609 131.62 23.2956 131.62 22.227C131.62 21.141 131.388 20.1758 130.922 19.3312C130.457 18.4866 129.819 17.8143 129.009 17.3145C128.199 16.8146 127.277 16.5647 126.243 16.5647Z" fill="white"/>
<path d="M146.772 13.1776C147.858 13.1776 148.797 13.3327 149.59 13.643C150.383 13.936 151.072 14.3411 151.658 14.8582V18.4779C151.245 18.1677 150.814 17.866 150.366 17.573C149.917 17.28 149.409 17.0387 148.84 16.8491C148.288 16.6595 147.633 16.5647 146.875 16.5647C145.841 16.5647 144.901 16.8146 144.057 17.3145C143.212 17.8143 142.54 18.4866 142.04 19.3312C141.54 20.1758 141.29 21.141 141.29 22.227C141.29 23.2956 141.54 24.2609 142.04 25.1227C142.54 25.9673 143.212 26.6396 144.057 27.1394C144.901 27.6221 145.841 27.8634 146.875 27.8634C148.03 27.8634 148.995 27.691 149.771 27.3463C150.564 26.9843 151.279 26.5448 151.917 26.0277V29.5181C151.331 30.0525 150.598 30.4834 149.719 30.8109C148.84 31.1212 147.858 31.2763 146.772 31.2763C145.531 31.2763 144.358 31.0608 143.255 30.6299C142.152 30.1817 141.178 29.5612 140.334 28.7683C139.489 27.9582 138.825 27.0016 138.343 25.8984C137.86 24.7952 137.619 23.5714 137.619 22.227C137.619 20.8825 137.86 19.6587 138.343 18.5555C138.825 17.4523 139.489 16.5043 140.334 15.7114C141.178 14.9013 142.152 14.2808 143.255 13.8498C144.358 13.4017 145.531 13.1776 146.772 13.1776Z" fill="white"/>
<path d="M163.319 13.1776C164.56 13.1776 165.724 13.4017 166.809 13.8498C167.895 14.2808 168.852 14.9013 169.679 15.7114C170.524 16.5043 171.179 17.4523 171.644 18.5555C172.127 19.6587 172.368 20.8825 172.368 22.227C172.368 23.5714 172.127 24.7952 171.644 25.8984C171.179 27.0016 170.524 27.9582 169.679 28.7683C168.852 29.5612 167.895 30.1817 166.809 30.6299C165.724 31.0608 164.56 31.2763 163.319 31.2763C162.078 31.2763 160.906 31.0608 159.803 30.6299C158.717 30.1817 157.752 29.5612 156.907 28.7683C156.08 27.9582 155.425 27.0016 154.942 25.8984C154.477 24.7952 154.244 23.5714 154.244 22.227C154.244 20.8825 154.477 19.6587 154.942 18.5555C155.425 17.4523 156.08 16.5043 156.907 15.7114C157.752 14.9013 158.717 14.2808 159.803 13.8498C160.906 13.4017 162.078 13.1776 163.319 13.1776ZM163.319 16.5647C162.285 16.5647 161.354 16.8146 160.527 17.3145C159.717 17.8143 159.079 18.4866 158.613 19.3312C158.148 20.1758 157.915 21.141 157.915 22.227C157.915 23.2956 158.148 24.2609 158.613 25.1227C159.079 25.9673 159.717 26.6396 160.527 27.1394C161.354 27.6221 162.285 27.8634 163.319 27.8634C164.353 27.8634 165.275 27.6221 166.086 27.1394C166.896 26.6396 167.533 25.9673 167.999 25.1227C168.464 24.2609 168.697 23.2956 168.697 22.227C168.697 21.141 168.464 20.1758 167.999 19.3312C167.533 18.4866 166.896 17.8143 166.086 17.3145C165.275 16.8146 164.353 16.5647 163.319 16.5647Z" fill="white"/>
<path d="M185.425 27.6566V30.8885H175.988V27.6566H178.91V16.7973H175.988V13.5654H185.425V16.7973H182.504V27.6566H185.425Z" fill="white"/>
<path d="M205.618 13.5654V31.0177H204.325L194.061 20.4429V30.8885H190.467V13.4362H191.76L202.024 24.1661V13.5654H205.618Z" fill="white"/>
<defs>
<linearGradient id="paint0_linear_116:3" x1="10.5" y1="3.42857" x2="35.5714" y2="42.5357" gradientUnits="userSpaceOnUse">
<stop stop-color="#FCD419"/>
<stop offset="1" stop-color="#F07A3D"/>
</linearGradient>
</defs>
</svg>
