<svg width="122" height="122" viewBox="0 0 122 122" fill="none" xmlns="http://www.w3.org/2000/svg">
<circle cx="61" cy="61" r="61" fill="#201854"/>
<path d="M77.6663 75.0002C82.821 75.0002 86.9997 70.8215 86.9997 65.6668C86.9997 60.5122 82.821 56.3335 77.6663 56.3335C72.5117 56.3335 68.333 60.5122 68.333 65.6668C68.333 70.8215 72.5117 75.0002 77.6663 75.0002Z" fill="#FCD419"/>
<path d="M56.3333 53.6667C61.488 53.6667 65.6667 49.488 65.6667 44.3333C65.6667 39.1787 61.488 35 56.3333 35C51.1787 35 47 39.1787 47 44.3333C47 49.488 51.1787 53.6667 56.3333 53.6667Z" fill="#FCD419"/>
<path d="M35 49.6668V56.3335C37.4753 56.3335 39.8493 57.3168 41.5997 59.0672C43.35 60.8175 44.3333 63.1915 44.3333 65.6668C44.3333 68.1422 43.35 70.5162 41.5997 72.2665C39.8493 74.0168 37.4753 75.0002 35 75.0002V81.6668C35 83.0813 35.5619 84.4379 36.5621 85.4381C37.5623 86.4383 38.9188 87.0002 40.3333 87.0002H47C47 84.5248 47.9833 82.1508 49.7337 80.4005C51.484 78.6502 53.858 77.6668 56.3333 77.6668C58.8087 77.6668 61.1827 78.6502 62.933 80.4005C64.6833 82.1508 65.6667 84.5248 65.6667 87.0002H72.3333C73.7478 87.0002 75.1044 86.4383 76.1046 85.4381C77.1048 84.4379 77.6667 83.0813 77.6667 81.6668V49.6668C77.6667 48.2523 77.1048 46.8958 76.1046 45.8956C75.1044 44.8954 73.7478 44.3335 72.3333 44.3335H40.3333C38.9188 44.3335 37.5623 44.8954 36.5621 45.8956C35.5619 46.8958 35 48.2523 35 49.6668Z" fill="#F07A3D"/>
<path d="M68.333 65.6668C68.333 68.1422 69.3163 70.5162 71.0667 72.2665C72.817 74.0168 75.191 75.0002 77.6663 75.0002V56.3335C75.191 56.3335 72.817 57.3168 71.0667 59.0672C69.3163 60.8175 68.333 63.1915 68.333 65.6668Z" fill="#FD9C69"/>
<path d="M56.3333 53.6668C58.8087 53.6668 61.1827 52.6835 62.933 50.9332C64.6833 49.1828 65.6667 46.8088 65.6667 44.3335H47C47 46.8088 47.9833 49.1828 49.7337 50.9332C51.484 52.6835 53.858 53.6668 56.3333 53.6668Z" fill="#FD9C69"/>
</svg>
