<svg width="723" height="47" viewBox="0 0 723 47" fill="none" xmlns="http://www.w3.org/2000/svg">
<path d="M37.7706 32.8167L43.7594 1.16188H52.8952L43.026 45.6497H33.7985L26.557 15.8893L19.3155 45.6497H10.088L0.21875 1.16188H9.35464L15.3739 32.7556L22.7071 1.16188H30.468L37.7706 32.8167Z" fill="url(#paint0_linear_116:7)"/>
<path d="M94.0831 45.6497H84.9167V26.5835H67.0421V45.6497H57.8757V1.16188H67.0421V19.1892H84.9167V1.16188H94.0831V45.6497Z" fill="url(#paint1_linear_116:7)"/>
<path d="M116.602 21.2058L125.86 1.16188H135.882L121.277 29.5167V45.6497H111.958V29.5167L97.3525 1.16188H107.405L116.602 21.2058Z" fill="url(#paint2_linear_116:7)"/>
<path d="M190.453 30.8306C190.107 35.6175 188.335 39.3859 185.136 42.1359C181.959 44.8858 177.763 46.2608 172.548 46.2608C166.844 46.2608 162.353 44.346 159.073 40.5165C155.814 36.6666 154.184 31.3908 154.184 24.6891V21.9697C154.184 17.692 154.938 13.9236 156.446 10.6644C157.953 7.40524 160.102 4.90993 162.893 3.1785C165.704 1.42669 168.963 0.550781 172.67 0.550781C177.803 0.550781 181.938 1.92575 185.075 4.67568C188.212 7.42561 190.025 11.2857 190.514 16.256H181.348C181.124 13.3838 180.319 11.3061 178.934 10.0228C177.569 8.7191 175.481 8.06727 172.67 8.06727C169.615 8.06727 167.323 9.16724 165.795 11.3672C164.288 13.5468 163.514 16.9383 163.473 21.5419V24.903C163.473 29.7103 164.196 33.2241 165.643 35.4444C167.109 37.6647 169.411 38.7749 172.548 38.7749C175.379 38.7749 177.488 38.1332 178.873 36.8499C180.278 35.5462 181.083 33.5398 181.287 30.8306H190.453Z" fill="url(#paint3_linear_116:7)"/>
<path d="M232.68 45.6497H223.513V26.5835H205.639V45.6497H196.472V1.16188H205.639V19.1892H223.513V1.16188H232.68V45.6497Z" fill="url(#paint4_linear_116:7)"/>
<path d="M277.259 24.4141C277.259 28.7936 276.485 32.6333 274.937 35.9333C273.389 39.2332 271.169 41.7794 268.276 43.572C265.404 45.3645 262.104 46.2608 258.376 46.2608C254.689 46.2608 251.4 45.3747 248.507 43.6025C245.615 41.8303 243.374 39.3045 241.785 36.0249C240.196 32.725 239.392 28.9362 239.371 24.6585V22.4586C239.371 18.0791 240.156 14.2292 241.724 10.9089C243.313 7.5682 245.543 5.01178 248.415 3.2396C251.308 1.44706 254.608 0.550781 258.315 0.550781C262.023 0.550781 265.312 1.44706 268.184 3.2396C271.077 5.01178 273.307 7.5682 274.876 10.9089C276.465 14.2292 277.259 18.0689 277.259 22.428V24.4141ZM267.971 22.3975C267.971 17.7328 267.135 14.1884 265.465 11.7644C263.795 9.34038 261.411 8.12837 258.315 8.12837C255.239 8.12837 252.866 9.3302 251.196 11.7338C249.526 14.1171 248.68 17.6207 248.66 22.2447V24.4141C248.66 28.9566 249.495 32.4806 251.165 34.9861C252.836 37.4916 255.239 38.7443 258.376 38.7443C261.452 38.7443 263.815 37.5425 265.465 35.1388C267.115 32.7148 267.95 29.1908 267.971 24.5669V22.3975Z" fill="url(#paint5_linear_116:7)"/>
<path d="M320.464 24.4141C320.464 28.7936 319.69 32.6333 318.142 35.9333C316.593 39.2332 314.373 41.7794 311.481 43.572C308.608 45.3645 305.309 46.2608 301.581 46.2608C297.894 46.2608 294.604 45.3747 291.712 43.6025C288.819 41.8303 286.578 39.3045 284.99 36.0249C283.401 32.725 282.596 28.9362 282.576 24.6585V22.4586C282.576 18.0791 283.36 14.2292 284.928 10.9089C286.517 7.5682 288.748 5.01178 291.62 3.2396C294.513 1.44706 297.812 0.550781 301.52 0.550781C305.227 0.550781 308.517 1.44706 311.389 3.2396C314.281 5.01178 316.512 7.5682 318.08 10.9089C319.669 14.2292 320.464 18.0689 320.464 22.428V24.4141ZM311.175 22.3975C311.175 17.7328 310.34 14.1884 308.67 11.7644C306.999 9.34038 304.616 8.12837 301.52 8.12837C298.444 8.12837 296.071 9.3302 294.4 11.7338C292.73 14.1171 291.885 17.6207 291.864 22.2447V24.4141C291.864 28.9566 292.7 32.4806 294.37 34.9861C296.04 37.4916 298.444 38.7443 301.581 38.7443C304.657 38.7443 307.02 37.5425 308.67 35.1388C310.32 32.7148 311.155 29.1908 311.175 24.5669V22.3975Z" fill="url(#paint6_linear_116:7)"/>
<path d="M350.194 33.9777C350.194 32.2463 349.582 30.9223 348.36 30.0056C347.138 29.0686 344.938 28.0909 341.76 27.0724C338.583 26.0335 336.067 25.015 334.213 24.0169C329.162 21.2873 326.636 17.6106 326.636 12.9866C326.636 10.5829 327.308 8.44411 328.652 6.57008C330.017 4.67568 331.963 3.19887 334.488 2.13963C337.035 1.0804 339.886 0.550781 343.044 0.550781C346.221 0.550781 349.053 1.13132 351.538 2.29241C354.023 3.43312 355.948 5.05252 357.313 7.15062C358.698 9.24872 359.391 11.632 359.391 14.3004H350.224C350.224 12.2635 349.582 10.6848 348.299 9.56445C347.016 8.42374 345.213 7.85338 342.891 7.85338C340.65 7.85338 338.909 8.33207 337.666 9.28946C336.424 10.2265 335.802 11.469 335.802 13.0171C335.802 14.4634 336.525 15.6754 337.972 16.6532C339.438 17.6309 341.587 18.5476 344.419 19.4031C349.633 20.9716 353.432 22.9169 355.816 25.2391C358.199 27.5612 359.391 30.4538 359.391 33.9166C359.391 37.7665 357.934 40.7915 355.021 42.9914C352.108 45.171 348.187 46.2608 343.258 46.2608C339.835 46.2608 336.719 45.6395 333.908 44.3969C331.097 43.134 328.948 41.4128 327.461 39.2332C325.994 37.0536 325.261 34.5277 325.261 31.6556H334.458C334.458 36.5647 337.391 39.0193 343.258 39.0193C345.437 39.0193 347.138 38.5813 348.36 37.7054C349.582 36.8092 350.194 35.5666 350.194 33.9777Z" fill="url(#paint7_linear_116:7)"/>
<path d="M392.39 26.3696H374.79V38.286H395.445V45.6497H365.624V1.16188H395.384V8.5867H374.79V19.1892H392.39V26.3696Z" fill="url(#paint8_linear_116:7)"/>
<path d="M426.122 38.286H448.55V45.6497H414.664V40.272L436.664 8.5867H414.695V1.16188H448.061V6.41731L426.122 38.286Z" fill="url(#paint9_linear_116:7)"/>
<path d="M490.104 24.4141C490.104 28.7936 489.33 32.6333 487.782 35.9333C486.234 39.2332 484.013 41.7794 481.121 43.572C478.249 45.3645 474.949 46.2608 471.221 46.2608C467.534 46.2608 464.245 45.3747 461.352 43.6025C458.459 41.8303 456.219 39.3045 454.63 36.0249C453.041 32.725 452.236 28.9362 452.216 24.6585V22.4586C452.216 18.0791 453 14.2292 454.569 10.9089C456.158 7.5682 458.388 5.01178 461.26 3.2396C464.153 1.44706 467.453 0.550781 471.16 0.550781C474.867 0.550781 478.157 1.44706 481.029 3.2396C483.922 5.01178 486.152 7.5682 487.721 10.9089C489.31 14.2292 490.104 18.0689 490.104 22.428V24.4141ZM480.815 22.3975C480.815 17.7328 479.98 14.1884 478.31 11.7644C476.64 9.34038 474.256 8.12837 471.16 8.12837C468.084 8.12837 465.711 9.3302 464.041 11.7338C462.37 14.1171 461.525 17.6207 461.505 22.2447V24.4141C461.505 28.9566 462.34 32.4806 464.01 34.9861C465.681 37.4916 468.084 38.7443 471.221 38.7443C474.297 38.7443 476.66 37.5425 478.31 35.1388C479.96 32.7148 480.795 29.1908 480.815 24.5669V22.3975Z" fill="url(#paint10_linear_116:7)"/>
<path d="M532.942 45.6497H523.775L505.931 16.3782V45.6497H496.765V1.16188H505.931L523.806 30.4945V1.16188H532.942V45.6497Z" fill="url(#paint11_linear_116:7)"/>
<path d="M577.491 24.4141C577.491 28.7936 576.717 32.6333 575.169 35.9333C573.621 39.2332 571.4 41.7794 568.508 43.572C565.636 45.3645 562.336 46.2608 558.608 46.2608C554.921 46.2608 551.631 45.3747 548.739 43.6025C545.846 41.8303 543.606 39.3045 542.017 36.0249C540.428 32.725 539.623 28.9362 539.603 24.6585V22.4586C539.603 18.0791 540.387 14.2292 541.956 10.9089C543.544 7.5682 545.775 5.01178 548.647 3.2396C551.54 1.44706 554.84 0.550781 558.547 0.550781C562.254 0.550781 565.544 1.44706 568.416 3.2396C571.309 5.01178 573.539 7.5682 575.108 10.9089C576.696 14.2292 577.491 18.0689 577.491 22.428V24.4141ZM568.202 22.3975C568.202 17.7328 567.367 14.1884 565.697 11.7644C564.026 9.34038 561.643 8.12837 558.547 8.12837C555.471 8.12837 553.098 9.3302 551.428 11.7338C549.757 14.1171 548.912 17.6207 548.892 22.2447V24.4141C548.892 28.9566 549.727 32.4806 551.397 34.9861C553.067 37.4916 555.471 38.7443 558.608 38.7443C561.684 38.7443 564.047 37.5425 565.697 35.1388C567.347 32.7148 568.182 29.1908 568.202 24.5669V22.3975Z" fill="url(#paint12_linear_116:7)"/>
<path d="M619.076 30.8306C618.73 35.6175 616.957 39.3859 613.759 42.1359C610.582 44.8858 606.385 46.2608 601.171 46.2608C595.467 46.2608 590.976 44.346 587.696 40.5165C584.437 36.6666 582.807 31.3908 582.807 24.6891V21.9697C582.807 17.692 583.561 13.9236 585.068 10.6644C586.576 7.40524 588.725 4.90993 591.515 3.1785C594.327 1.42669 597.586 0.550781 601.293 0.550781C606.426 0.550781 610.561 1.92575 613.698 4.67568C616.835 7.42561 618.648 11.2857 619.137 16.256H609.971C609.747 13.3838 608.942 11.3061 607.557 10.0228C606.192 8.7191 604.104 8.06727 601.293 8.06727C598.238 8.06727 595.946 9.16724 594.418 11.3672C592.911 13.5468 592.137 16.9383 592.096 21.5419V24.903C592.096 29.7103 592.819 33.2241 594.265 35.4444C595.732 37.6647 598.034 38.7749 601.171 38.7749C604.002 38.7749 606.111 38.1332 607.496 36.8499C608.901 35.5462 609.706 33.5398 609.909 30.8306H619.076Z" fill="url(#paint13_linear_116:7)"/>
<path d="M661.639 24.4141C661.639 28.7936 660.865 32.6333 659.317 35.9333C657.769 39.2332 655.548 41.7794 652.656 43.572C649.784 45.3645 646.484 46.2608 642.756 46.2608C639.069 46.2608 635.779 45.3747 632.887 43.6025C629.994 41.8303 627.753 39.3045 626.165 36.0249C624.576 32.725 623.771 28.9362 623.751 24.6585V22.4586C623.751 18.0791 624.535 14.2292 626.104 10.9089C627.692 7.5682 629.923 5.01178 632.795 3.2396C635.688 1.44706 638.987 0.550781 642.695 0.550781C646.402 0.550781 649.692 1.44706 652.564 3.2396C655.457 5.01178 657.687 7.5682 659.256 10.9089C660.844 14.2292 661.639 18.0689 661.639 22.428V24.4141ZM652.35 22.3975C652.35 17.7328 651.515 14.1884 649.845 11.7644C648.174 9.34038 645.791 8.12837 642.695 8.12837C639.619 8.12837 637.246 9.3302 635.576 11.7338C633.905 14.1171 633.06 17.6207 633.039 22.2447V24.4141C633.039 28.9566 633.875 32.4806 635.545 34.9861C637.215 37.4916 639.619 38.7443 642.756 38.7443C645.832 38.7443 648.195 37.5425 649.845 35.1388C651.495 32.7148 652.33 29.1908 652.35 24.5669V22.3975Z" fill="url(#paint14_linear_116:7)"/>
<path d="M678.047 45.6497H668.88V1.16188H678.047V45.6497Z" fill="url(#paint15_linear_116:7)"/>
<path d="M722.748 45.6497H713.582L695.738 16.3782V45.6497H686.572V1.16188H695.738L713.613 30.4945V1.16188H722.748V45.6497Z" fill="url(#paint16_linear_116:7)"/>
<defs>
<linearGradient id="paint0_linear_116:7" x1="363.433" y1="-41.5903" x2="363.433" y2="45.8101" gradientUnits="userSpaceOnUse">
<stop stop-color="#4A3F82"/>
<stop offset="1" stop-color="#2F2272" stop-opacity="0"/>
</linearGradient>
<linearGradient id="paint1_linear_116:7" x1="363.433" y1="-41.5903" x2="363.433" y2="45.8101" gradientUnits="userSpaceOnUse">
<stop stop-color="#4A3F82"/>
<stop offset="1" stop-color="#2F2272" stop-opacity="0"/>
</linearGradient>
<linearGradient id="paint2_linear_116:7" x1="363.433" y1="-41.5903" x2="363.433" y2="45.8101" gradientUnits="userSpaceOnUse">
<stop stop-color="#4A3F82"/>
<stop offset="1" stop-color="#2F2272" stop-opacity="0"/>
</linearGradient>
<linearGradient id="paint3_linear_116:7" x1="363.433" y1="-41.5903" x2="363.433" y2="45.8101" gradientUnits="userSpaceOnUse">
<stop stop-color="#4A3F82"/>
<stop offset="1" stop-color="#2F2272" stop-opacity="0"/>
</linearGradient>
<linearGradient id="paint4_linear_116:7" x1="363.433" y1="-41.5903" x2="363.433" y2="45.8101" gradientUnits="userSpaceOnUse">
<stop stop-color="#4A3F82"/>
<stop offset="1" stop-color="#2F2272" stop-opacity="0"/>
</linearGradient>
<linearGradient id="paint5_linear_116:7" x1="363.433" y1="-41.5903" x2="363.433" y2="45.8101" gradientUnits="userSpaceOnUse">
<stop stop-color="#4A3F82"/>
<stop offset="1" stop-color="#2F2272" stop-opacity="0"/>
</linearGradient>
<linearGradient id="paint6_linear_116:7" x1="363.433" y1="-41.5903" x2="363.433" y2="45.8101" gradientUnits="userSpaceOnUse">
<stop stop-color="#4A3F82"/>
<stop offset="1" stop-color="#2F2272" stop-opacity="0"/>
</linearGradient>
<linearGradient id="paint7_linear_116:7" x1="363.433" y1="-41.5903" x2="363.433" y2="45.8101" gradientUnits="userSpaceOnUse">
<stop stop-color="#4A3F82"/>
<stop offset="1" stop-color="#2F2272" stop-opacity="0"/>
</linearGradient>
<linearGradient id="paint8_linear_116:7" x1="363.433" y1="-41.5903" x2="363.433" y2="45.8101" gradientUnits="userSpaceOnUse">
<stop stop-color="#4A3F82"/>
<stop offset="1" stop-color="#2F2272" stop-opacity="0"/>
</linearGradient>
<linearGradient id="paint9_linear_116:7" x1="363.433" y1="-41.5903" x2="363.433" y2="45.8101" gradientUnits="userSpaceOnUse">
<stop stop-color="#4A3F82"/>
<stop offset="1" stop-color="#2F2272" stop-opacity="0"/>
</linearGradient>
<linearGradient id="paint10_linear_116:7" x1="363.433" y1="-41.5903" x2="363.433" y2="45.8101" gradientUnits="userSpaceOnUse">
<stop stop-color="#4A3F82"/>
<stop offset="1" stop-color="#2F2272" stop-opacity="0"/>
</linearGradient>
<linearGradient id="paint11_linear_116:7" x1="363.433" y1="-41.5903" x2="363.433" y2="45.8101" gradientUnits="userSpaceOnUse">
<stop stop-color="#4A3F82"/>
<stop offset="1" stop-color="#2F2272" stop-opacity="0"/>
</linearGradient>
<linearGradient id="paint12_linear_116:7" x1="363.433" y1="-41.5903" x2="363.433" y2="45.8101" gradientUnits="userSpaceOnUse">
<stop stop-color="#4A3F82"/>
<stop offset="1" stop-color="#2F2272" stop-opacity="0"/>
</linearGradient>
<linearGradient id="paint13_linear_116:7" x1="363.433" y1="-41.5903" x2="363.433" y2="45.8101" gradientUnits="userSpaceOnUse">
<stop stop-color="#4A3F82"/>
<stop offset="1" stop-color="#2F2272" stop-opacity="0"/>
</linearGradient>
<linearGradient id="paint14_linear_116:7" x1="363.433" y1="-41.5903" x2="363.433" y2="45.8101" gradientUnits="userSpaceOnUse">
<stop stop-color="#4A3F82"/>
<stop offset="1" stop-color="#2F2272" stop-opacity="0"/>
</linearGradient>
<linearGradient id="paint15_linear_116:7" x1="363.433" y1="-41.5903" x2="363.433" y2="45.8101" gradientUnits="userSpaceOnUse">
<stop stop-color="#4A3F82"/>
<stop offset="1" stop-color="#2F2272" stop-opacity="0"/>
</linearGradient>
<linearGradient id="paint16_linear_116:7" x1="363.433" y1="-41.5903" x2="363.433" y2="45.8101" gradientUnits="userSpaceOnUse">
<stop stop-color="#4A3F82"/>
<stop offset="1" stop-color="#2F2272" stop-opacity="0"/>
</linearGradient>
</defs>
</svg>
