<svg width="796" height="46" viewBox="0 0 796 46" fill="none" xmlns="http://www.w3.org/2000/svg">
<path d="M23.4505 23.3878H8.51966V38.8112H0.743164V1.06921H25.3169V7.36818H8.51966V17.1147H23.4505V23.3878Z" fill="url(#paint0_linear_118:588)"/>
<path d="M43.799 24.9949H37.6038V38.8112H29.8273V1.06921H43.8509C48.3094 1.06921 51.7484 2.06288 54.1677 4.05021C56.5871 6.03753 57.7967 8.84571 57.7967 12.4747C57.7967 15.0496 57.2351 17.2011 56.1118 18.9292C55.0058 20.6401 53.3209 22.0053 51.0571 23.0249L59.2224 38.4482V38.8112H50.8757L43.799 24.9949ZM37.6038 18.6959H43.8768C45.8296 18.6959 47.3417 18.2034 48.4131 17.2184C49.4845 16.2161 50.0202 14.8423 50.0202 13.0969C50.0202 11.3169 49.5104 9.91714 48.4909 8.89756C47.4886 7.87797 45.9419 7.36818 43.8509 7.36818H37.6038V18.6959Z" fill="url(#paint1_linear_118:588)"/>
<path d="M86.4402 22.4546H71.5093V32.564H89.0323V38.8112H63.7328V1.06921H88.9805V7.36818H71.5093V16.363H86.4402V22.4546Z" fill="url(#paint2_linear_118:588)"/>
<path d="M124.545 20.7956C124.545 24.3209 123.975 27.3883 122.834 29.9978C121.694 32.59 120.112 34.6723 118.091 36.2449L124.364 41.17L119.413 45.5508L111.377 39.0963C110.461 39.2518 109.51 39.3296 108.525 39.3296C105.398 39.3296 102.607 38.5779 100.153 37.0744C97.6988 35.5709 95.7979 33.4281 94.45 30.6458C93.102 27.8463 92.4194 24.632 92.4022 21.003V19.1366C92.4022 15.4212 93.0675 12.155 94.3981 9.33822C95.746 6.50412 97.6383 4.33534 100.075 2.83189C102.529 1.31115 105.328 0.550781 108.474 0.550781C111.619 0.550781 114.41 1.31115 116.846 2.83189C119.3 4.33534 121.192 6.50412 122.523 9.33822C123.871 12.155 124.545 15.4125 124.545 19.1107V20.7956ZM116.665 19.0848C116.665 15.1274 115.956 12.1205 114.539 10.064C113.122 8.00758 111.1 6.97935 108.474 6.97935C105.864 6.97935 103.851 7.99894 102.434 10.0381C101.017 12.06 100.3 15.0323 100.282 18.9552V20.7956C100.282 24.6493 100.991 27.6389 102.408 29.7645C103.825 31.8901 105.864 32.9529 108.525 32.9529C111.135 32.9529 113.139 31.9333 114.539 29.8941C115.939 27.8376 116.648 24.848 116.665 20.9252V19.0848Z" fill="url(#paint3_linear_118:588)"/>
<path d="M158.813 1.06921V25.9281C158.813 30.0583 157.517 33.3244 154.925 35.7265C152.35 38.1285 148.825 39.3296 144.349 39.3296C139.942 39.3296 136.443 38.1631 133.851 35.8302C131.259 33.4972 129.937 30.2916 129.885 26.2132V1.06921H137.661V25.9799C137.661 28.4511 138.249 30.257 139.424 31.3976C140.616 32.5208 142.258 33.0825 144.349 33.0825C148.721 33.0825 150.942 30.7841 151.011 26.1873V1.06921H158.813Z" fill="url(#paint4_linear_118:588)"/>
<path d="M187.898 22.4546H172.967V32.564H190.49V38.8112H165.19V1.06921H190.438V7.36818H172.967V16.363H187.898V22.4546Z" fill="url(#paint5_linear_118:588)"/>
<path d="M225.743 38.8112H217.967L202.828 13.9782V38.8112H195.052V1.06921H202.828L217.993 25.954V1.06921H225.743V38.8112Z" fill="url(#paint6_linear_118:588)"/>
<path d="M260.167 7.36818H248.606V38.8112H240.83V7.36818H229.424V1.06921H260.167V7.36818Z" fill="url(#paint7_linear_118:588)"/>
<path d="M272.402 32.564H288.914V38.8112H264.626V1.06921H272.402V32.564Z" fill="url(#paint8_linear_118:588)"/>
<path d="M299.153 18.0738L307.008 1.06921H315.51L303.119 25.1245V38.8112H295.213V25.1245L282.823 1.06921H291.351L299.153 18.0738Z" fill="url(#paint9_linear_118:588)"/>
<path d="M353.485 31.0347H339.85L337.258 38.8112H328.989L343.039 1.06921H350.245L364.372 38.8112H356.103L353.485 31.0347ZM341.95 24.7357H351.385L346.642 10.6084L341.95 24.7357Z" fill="url(#paint10_linear_118:588)"/>
<path d="M387.468 28.9091C387.468 27.4402 386.95 26.3169 385.913 25.5393C384.876 24.7443 383.01 23.9148 380.314 23.0508C377.618 22.1694 375.484 21.3054 373.911 20.4586C369.626 18.1429 367.483 15.0237 367.483 11.1009C367.483 9.06173 368.053 7.24721 369.194 5.65735C370.351 4.05021 372.002 2.79733 374.145 1.89871C376.305 1.00009 378.724 0.550781 381.403 0.550781C384.099 0.550781 386.501 1.04329 388.609 2.02832C390.717 2.99606 392.35 4.36991 393.508 6.14986C394.683 7.92981 395.271 9.9517 395.271 12.2155H387.494C387.494 10.4874 386.95 9.14813 385.861 8.19767C384.773 7.22993 383.243 6.74606 381.273 6.74606C379.372 6.74606 377.895 7.15216 376.841 7.96438C375.786 8.75931 375.259 9.81345 375.259 11.1268C375.259 12.3538 375.873 13.382 377.1 14.2115C378.344 15.041 380.167 15.8186 382.569 16.5444C386.993 17.8751 390.216 19.5254 392.238 21.4955C394.26 23.4655 395.271 25.9194 395.271 28.8572C395.271 32.1234 394.035 34.6896 391.564 36.556C389.093 38.405 385.766 39.3296 381.584 39.3296C378.681 39.3296 376.037 38.8025 373.652 37.7484C371.267 36.6769 369.444 35.2167 368.183 33.3676C366.938 31.5185 366.316 29.3757 366.316 26.939H374.119C374.119 31.1038 376.607 33.1862 381.584 33.1862C383.433 33.1862 384.876 32.8146 385.913 32.0715C386.95 31.3112 387.468 30.257 387.468 28.9091Z" fill="url(#paint11_linear_118:588)"/>
<path d="M412.379 23.6729L408.335 28.0277V38.8112H400.559V1.06921H408.335V18.1775L411.757 13.4857L421.374 1.06921H430.939L417.538 17.8405L431.328 38.8112H422.074L412.379 23.6729Z" fill="url(#paint12_linear_118:588)"/>
<path d="M456.964 22.4546H442.034V32.564H459.557V38.8112H434.257V1.06921H459.505V7.36818H442.034V16.363H456.964V22.4546Z" fill="url(#paint13_linear_118:588)"/>
<path d="M464.119 38.8112V1.06921H475.732C479.05 1.06921 482.013 1.82094 484.623 3.3244C487.25 4.81057 489.297 6.93615 490.766 9.70113C492.235 12.4488 492.97 15.5767 492.97 19.0848V20.8215C492.97 24.3296 492.244 27.4488 490.792 30.1792C489.358 32.9097 487.327 35.0266 484.701 36.53C482.074 38.0335 479.11 38.7939 475.809 38.8112H464.119ZM471.895 7.36818V32.564H475.654C478.695 32.564 481.02 31.5704 482.627 29.583C484.234 27.5957 485.055 24.753 485.089 21.0548V19.0588C485.089 15.2224 484.294 12.3192 482.705 10.3492C481.115 8.36184 478.79 7.36818 475.732 7.36818H471.895Z" fill="url(#paint14_linear_118:588)"/>
<path d="M542.817 20.7956C542.817 24.3209 542.247 27.3883 541.106 29.9978C539.966 32.59 538.384 34.6723 536.362 36.2449L542.635 41.17L537.684 45.5508L529.649 39.0963C528.733 39.2518 527.782 39.3296 526.797 39.3296C523.669 39.3296 520.879 38.5779 518.425 37.0744C515.971 35.5709 514.07 33.4281 512.722 30.6458C511.374 27.8463 510.691 24.632 510.674 21.003V19.1366C510.674 15.4212 511.339 12.155 512.67 9.33822C514.018 6.50412 515.91 4.33534 518.347 2.83189C520.801 1.31115 523.6 0.550781 526.745 0.550781C529.891 0.550781 532.682 1.31115 535.118 2.83189C537.572 4.33534 539.464 6.50412 540.795 9.33822C542.143 12.155 542.817 15.4125 542.817 19.1107V20.7956ZM534.937 19.0848C534.937 15.1274 534.228 12.1205 532.811 10.064C531.394 8.00758 529.372 6.97935 526.745 6.97935C524.136 6.97935 522.123 7.99894 520.706 10.0381C519.289 12.06 518.572 15.0323 518.554 18.9552V20.7956C518.554 24.6493 519.263 27.6389 520.68 29.7645C522.097 31.8901 524.136 32.9529 526.797 32.9529C529.407 32.9529 531.411 31.9333 532.811 29.8941C534.211 27.8376 534.919 24.848 534.937 20.9252V19.0848Z" fill="url(#paint15_linear_118:588)"/>
<path d="M577.085 1.06921V25.9281C577.085 30.0583 575.789 33.3244 573.197 35.7265C570.622 38.1285 567.097 39.3296 562.621 39.3296C558.214 39.3296 554.715 38.1631 552.123 35.8302C549.531 33.4972 548.209 30.2916 548.157 26.2132V1.06921H555.933V25.9799C555.933 28.4511 556.521 30.257 557.696 31.3976C558.888 32.5208 560.53 33.0825 562.621 33.0825C566.993 33.0825 569.214 30.7841 569.283 26.1873V1.06921H577.085Z" fill="url(#paint16_linear_118:588)"/>
<path d="M606.169 22.4546H591.239V32.564H608.762V38.8112H583.462V1.06921H608.71V7.36818H591.239V16.363H606.169V22.4546Z" fill="url(#paint17_linear_118:588)"/>
<path d="M632.895 28.9091C632.895 27.4402 632.376 26.3169 631.339 25.5393C630.303 24.7443 628.436 23.9148 625.74 23.0508C623.044 22.1694 620.91 21.3054 619.338 20.4586C615.052 18.1429 612.909 15.0237 612.909 11.1009C612.909 9.06173 613.479 7.24721 614.62 5.65735C615.778 4.05021 617.428 2.79733 619.571 1.89871C621.731 1.00009 624.15 0.550781 626.829 0.550781C629.525 0.550781 631.927 1.04329 634.035 2.02832C636.144 2.99606 637.777 4.36991 638.934 6.14986C640.11 7.92981 640.697 9.9517 640.697 12.2155H632.921C632.921 10.4874 632.376 9.14813 631.288 8.19767C630.199 7.22993 628.669 6.74606 626.699 6.74606C624.798 6.74606 623.321 7.15216 622.267 7.96438C621.213 8.75931 620.686 9.81345 620.686 11.1268C620.686 12.3538 621.299 13.382 622.526 14.2115C623.77 15.041 625.593 15.8186 627.995 16.5444C632.419 17.8751 635.642 19.5254 637.664 21.4955C639.686 23.4655 640.697 25.9194 640.697 28.8572C640.697 32.1234 639.462 34.6896 636.99 36.556C634.519 38.405 631.192 39.3296 627.01 39.3296C624.107 39.3296 621.463 38.8025 619.078 37.7484C616.694 36.6769 614.87 35.2167 613.609 33.3676C612.365 31.5185 611.743 29.3757 611.743 26.939H619.545C619.545 31.1038 622.034 33.1862 627.01 33.1862C628.86 33.1862 630.303 32.8146 631.339 32.0715C632.376 31.3112 632.895 30.257 632.895 28.9091Z" fill="url(#paint18_linear_118:588)"/>
<path d="M674.395 7.36818H662.834V38.8112H655.058V7.36818H643.652V1.06921H674.395V7.36818Z" fill="url(#paint19_linear_118:588)"/>
<path d="M687.123 38.8112H679.346V1.06921H687.123V38.8112Z" fill="url(#paint20_linear_118:588)"/>
<path d="M725.357 20.7956C725.357 24.511 724.701 27.7685 723.387 30.5681C722.074 33.3676 720.19 35.5277 717.736 37.0485C715.3 38.5692 712.5 39.3296 709.338 39.3296C706.21 39.3296 703.419 38.5779 700.965 37.0744C698.511 35.5709 696.61 33.4281 695.262 30.6458C693.914 27.8463 693.232 24.632 693.214 21.003V19.1366C693.214 15.4212 693.88 12.155 695.21 9.33822C696.558 6.50412 698.451 4.33534 700.887 2.83189C703.341 1.31115 706.141 0.550781 709.286 0.550781C712.431 0.550781 715.222 1.31115 717.659 2.83189C720.112 4.33534 722.005 6.50412 723.335 9.33822C724.683 12.155 725.357 15.4125 725.357 19.1107V20.7956ZM717.477 19.0848C717.477 15.1274 716.769 12.1205 715.351 10.064C713.934 8.00758 711.913 6.97935 709.286 6.97935C706.676 6.97935 704.663 7.99894 703.246 10.0381C701.829 12.06 701.112 15.0323 701.095 18.9552V20.7956C701.095 24.6493 701.803 27.6389 703.22 29.7645C704.637 31.8901 706.676 32.9529 709.338 32.9529C711.947 32.9529 713.952 31.9333 715.351 29.8941C716.751 27.8376 717.46 24.848 717.477 20.9252V19.0848Z" fill="url(#paint21_linear_118:588)"/>
<path d="M761.699 38.8112H753.923L738.785 13.9782V38.8112H731.008V1.06921H738.785L753.949 25.954V1.06921H761.699V38.8112Z" fill="url(#paint22_linear_118:588)"/>
<path d="M788.062 28.9091C788.062 27.4402 787.543 26.3169 786.506 25.5393C785.47 24.7443 783.603 23.9148 780.907 23.0508C778.212 22.1694 776.077 21.3054 774.505 20.4586C770.219 18.1429 768.076 15.0237 768.076 11.1009C768.076 9.06173 768.646 7.24721 769.787 5.65735C770.945 4.05021 772.595 2.79733 774.738 1.89871C776.898 1.00009 779.317 0.550781 781.996 0.550781C784.692 0.550781 787.094 1.04329 789.202 2.02832C791.311 2.99606 792.944 4.36991 794.101 6.14986C795.277 7.92981 795.864 9.9517 795.864 12.2155H788.088C788.088 10.4874 787.543 9.14813 786.455 8.19767C785.366 7.22993 783.837 6.74606 781.866 6.74606C779.966 6.74606 778.488 7.15216 777.434 7.96438C776.38 8.75931 775.853 9.81345 775.853 11.1268C775.853 12.3538 776.466 13.382 777.693 14.2115C778.937 15.041 780.76 15.8186 783.163 16.5444C787.587 17.8751 790.809 19.5254 792.831 21.4955C794.853 23.4655 795.864 25.9194 795.864 28.8572C795.864 32.1234 794.629 34.6896 792.157 36.556C789.686 38.405 786.36 39.3296 782.178 39.3296C779.274 39.3296 776.63 38.8025 774.245 37.7484C771.861 36.6769 770.038 35.2167 768.776 33.3676C767.532 31.5185 766.91 29.3757 766.91 26.939H774.712C774.712 31.1038 777.201 33.1862 782.178 33.1862C784.027 33.1862 785.47 32.8146 786.506 32.0715C787.543 31.3112 788.062 30.257 788.062 28.9091Z" fill="url(#paint23_linear_118:588)"/>
<defs>
<linearGradient id="paint0_linear_118:588" x1="398.092" y1="-35.2003" x2="398.092" y2="38.9473" gradientUnits="userSpaceOnUse">
<stop stop-color="#4A3F82"/>
<stop offset="1" stop-color="#2F2272" stop-opacity="0"/>
</linearGradient>
<linearGradient id="paint1_linear_118:588" x1="398.092" y1="-35.2003" x2="398.092" y2="38.9473" gradientUnits="userSpaceOnUse">
<stop stop-color="#4A3F82"/>
<stop offset="1" stop-color="#2F2272" stop-opacity="0"/>
</linearGradient>
<linearGradient id="paint2_linear_118:588" x1="398.092" y1="-35.2003" x2="398.092" y2="38.9473" gradientUnits="userSpaceOnUse">
<stop stop-color="#4A3F82"/>
<stop offset="1" stop-color="#2F2272" stop-opacity="0"/>
</linearGradient>
<linearGradient id="paint3_linear_118:588" x1="398.092" y1="-35.2003" x2="398.092" y2="38.9473" gradientUnits="userSpaceOnUse">
<stop stop-color="#4A3F82"/>
<stop offset="1" stop-color="#2F2272" stop-opacity="0"/>
</linearGradient>
<linearGradient id="paint4_linear_118:588" x1="398.092" y1="-35.2003" x2="398.092" y2="38.9473" gradientUnits="userSpaceOnUse">
<stop stop-color="#4A3F82"/>
<stop offset="1" stop-color="#2F2272" stop-opacity="0"/>
</linearGradient>
<linearGradient id="paint5_linear_118:588" x1="398.092" y1="-35.2003" x2="398.092" y2="38.9473" gradientUnits="userSpaceOnUse">
<stop stop-color="#4A3F82"/>
<stop offset="1" stop-color="#2F2272" stop-opacity="0"/>
</linearGradient>
<linearGradient id="paint6_linear_118:588" x1="398.092" y1="-35.2003" x2="398.092" y2="38.9473" gradientUnits="userSpaceOnUse">
<stop stop-color="#4A3F82"/>
<stop offset="1" stop-color="#2F2272" stop-opacity="0"/>
</linearGradient>
<linearGradient id="paint7_linear_118:588" x1="398.092" y1="-35.2003" x2="398.092" y2="38.9473" gradientUnits="userSpaceOnUse">
<stop stop-color="#4A3F82"/>
<stop offset="1" stop-color="#2F2272" stop-opacity="0"/>
</linearGradient>
<linearGradient id="paint8_linear_118:588" x1="398.092" y1="-35.2003" x2="398.092" y2="38.9473" gradientUnits="userSpaceOnUse">
<stop stop-color="#4A3F82"/>
<stop offset="1" stop-color="#2F2272" stop-opacity="0"/>
</linearGradient>
<linearGradient id="paint9_linear_118:588" x1="398.092" y1="-35.2003" x2="398.092" y2="38.9473" gradientUnits="userSpaceOnUse">
<stop stop-color="#4A3F82"/>
<stop offset="1" stop-color="#2F2272" stop-opacity="0"/>
</linearGradient>
<linearGradient id="paint10_linear_118:588" x1="398.092" y1="-35.2003" x2="398.092" y2="38.9473" gradientUnits="userSpaceOnUse">
<stop stop-color="#4A3F82"/>
<stop offset="1" stop-color="#2F2272" stop-opacity="0"/>
</linearGradient>
<linearGradient id="paint11_linear_118:588" x1="398.092" y1="-35.2003" x2="398.092" y2="38.9473" gradientUnits="userSpaceOnUse">
<stop stop-color="#4A3F82"/>
<stop offset="1" stop-color="#2F2272" stop-opacity="0"/>
</linearGradient>
<linearGradient id="paint12_linear_118:588" x1="398.092" y1="-35.2003" x2="398.092" y2="38.9473" gradientUnits="userSpaceOnUse">
<stop stop-color="#4A3F82"/>
<stop offset="1" stop-color="#2F2272" stop-opacity="0"/>
</linearGradient>
<linearGradient id="paint13_linear_118:588" x1="398.092" y1="-35.2003" x2="398.092" y2="38.9473" gradientUnits="userSpaceOnUse">
<stop stop-color="#4A3F82"/>
<stop offset="1" stop-color="#2F2272" stop-opacity="0"/>
</linearGradient>
<linearGradient id="paint14_linear_118:588" x1="398.092" y1="-35.2003" x2="398.092" y2="38.9473" gradientUnits="userSpaceOnUse">
<stop stop-color="#4A3F82"/>
<stop offset="1" stop-color="#2F2272" stop-opacity="0"/>
</linearGradient>
<linearGradient id="paint15_linear_118:588" x1="398.092" y1="-35.2003" x2="398.092" y2="38.9473" gradientUnits="userSpaceOnUse">
<stop stop-color="#4A3F82"/>
<stop offset="1" stop-color="#2F2272" stop-opacity="0"/>
</linearGradient>
<linearGradient id="paint16_linear_118:588" x1="398.092" y1="-35.2003" x2="398.092" y2="38.9473" gradientUnits="userSpaceOnUse">
<stop stop-color="#4A3F82"/>
<stop offset="1" stop-color="#2F2272" stop-opacity="0"/>
</linearGradient>
<linearGradient id="paint17_linear_118:588" x1="398.092" y1="-35.2003" x2="398.092" y2="38.9473" gradientUnits="userSpaceOnUse">
<stop stop-color="#4A3F82"/>
<stop offset="1" stop-color="#2F2272" stop-opacity="0"/>
</linearGradient>
<linearGradient id="paint18_linear_118:588" x1="398.092" y1="-35.2003" x2="398.092" y2="38.9473" gradientUnits="userSpaceOnUse">
<stop stop-color="#4A3F82"/>
<stop offset="1" stop-color="#2F2272" stop-opacity="0"/>
</linearGradient>
<linearGradient id="paint19_linear_118:588" x1="398.092" y1="-35.2003" x2="398.092" y2="38.9473" gradientUnits="userSpaceOnUse">
<stop stop-color="#4A3F82"/>
<stop offset="1" stop-color="#2F2272" stop-opacity="0"/>
</linearGradient>
<linearGradient id="paint20_linear_118:588" x1="398.092" y1="-35.2003" x2="398.092" y2="38.9473" gradientUnits="userSpaceOnUse">
<stop stop-color="#4A3F82"/>
<stop offset="1" stop-color="#2F2272" stop-opacity="0"/>
</linearGradient>
<linearGradient id="paint21_linear_118:588" x1="398.092" y1="-35.2003" x2="398.092" y2="38.9473" gradientUnits="userSpaceOnUse">
<stop stop-color="#4A3F82"/>
<stop offset="1" stop-color="#2F2272" stop-opacity="0"/>
</linearGradient>
<linearGradient id="paint22_linear_118:588" x1="398.092" y1="-35.2003" x2="398.092" y2="38.9473" gradientUnits="userSpaceOnUse">
<stop stop-color="#4A3F82"/>
<stop offset="1" stop-color="#2F2272" stop-opacity="0"/>
</linearGradient>
<linearGradient id="paint23_linear_118:588" x1="398.092" y1="-35.2003" x2="398.092" y2="38.9473" gradientUnits="userSpaceOnUse">
<stop stop-color="#4A3F82"/>
<stop offset="1" stop-color="#2F2272" stop-opacity="0"/>
</linearGradient>
</defs>
</svg>
