<svg width="652" height="46" viewBox="0 0 652 46" fill="none" xmlns="http://www.w3.org/2000/svg">
<path d="M21.1553 1.15239H30.1794V31.4732C30.1794 34.2607 29.5577 36.7273 28.3144 38.873C27.0911 40.9986 25.3565 42.643 23.1105 43.8061C20.8645 44.9692 18.3278 45.5508 15.5002 45.5508C10.8679 45.5508 7.25826 44.3777 4.67136 42.0314C2.08446 39.6651 0.791016 36.3262 0.791016 32.0147H9.87524C9.87524 34.1604 10.3264 35.7446 11.2288 36.7674C12.1313 37.7901 13.5551 38.3014 15.5002 38.3014C17.2248 38.3014 18.5985 37.7099 19.6212 36.5267C20.644 35.3436 21.1553 33.6591 21.1553 31.4732V1.15239Z" fill="url(#paint0_linear_118:615)"/>
<path d="M73.8859 24.0434C73.8859 28.3549 73.1239 32.135 71.5998 35.3837C70.0758 38.6323 67.8899 41.139 65.0424 42.9037C62.2148 44.6684 58.9661 45.5508 55.2964 45.5508C51.6667 45.5508 48.428 44.6785 45.5805 42.9338C42.7329 41.1891 40.527 38.7025 38.9628 35.4739C37.3986 32.2252 36.6065 28.4953 36.5865 24.2841V22.1183C36.5865 17.8068 37.3585 14.0167 38.9026 10.748C40.4668 7.4592 42.6627 4.94249 45.4902 3.19784C48.3378 1.43313 51.5865 0.550781 55.2362 0.550781C58.8859 0.550781 62.1246 1.43313 64.9521 3.19784C67.7997 4.94249 69.9956 7.4592 71.5397 10.748C73.1038 14.0167 73.8859 17.7968 73.8859 22.0882V24.0434ZM64.7415 22.0581C64.7415 17.4659 63.9194 13.9766 62.275 11.5902C60.6306 9.20386 58.2843 8.01067 55.2362 8.01067C52.2081 8.01067 49.8719 9.19383 48.2275 11.5601C46.5831 13.9064 45.7509 17.3556 45.7309 21.9077V24.0434C45.7309 28.5154 46.553 31.9846 48.1974 34.4512C49.8418 36.9178 52.2081 38.151 55.2964 38.151C58.3244 38.151 60.6506 36.9679 62.275 34.6016C63.8993 32.2152 64.7215 28.746 64.7415 24.1938V22.0581Z" fill="url(#paint1_linear_118:615)"/>
<path d="M90.039 44.9492H81.0149V1.15239H90.039V44.9492Z" fill="url(#paint2_linear_118:615)"/>
<path d="M134.046 44.9492H125.022L107.455 16.1323V44.9492H98.4314V1.15239H107.455L125.052 30.0294V1.15239H134.046V44.9492Z" fill="url(#paint3_linear_118:615)"/>
<path d="M188.431 8.46188H175.016V44.9492H165.992V8.46188H152.756V1.15239H188.431V8.46188Z" fill="url(#paint4_linear_118:615)"/>
<path d="M229.25 44.9492H220.226V26.1791H202.629V44.9492H193.605V1.15239H202.629V18.8997H220.226V1.15239H229.25V44.9492Z" fill="url(#paint5_linear_118:615)"/>
<path d="M263.512 25.9686H246.185V37.6998H266.52V44.9492H237.161V1.15239H266.459V8.46188H246.185V18.8997H263.512V25.9686Z" fill="url(#paint6_linear_118:615)"/>
<path d="M321.536 30.3603C321.195 35.0728 319.451 38.7827 316.302 41.49C313.174 44.1972 309.043 45.5508 303.909 45.5508C298.294 45.5508 293.873 43.6658 290.644 39.8957C287.435 36.1056 285.831 30.9117 285.831 24.3141V21.637C285.831 17.4258 286.573 13.7159 288.057 10.5073C289.541 7.29878 291.657 4.84223 294.404 3.13768C297.171 1.41308 300.38 0.550781 304.03 0.550781C309.083 0.550781 313.154 1.90439 316.242 4.61161C319.33 7.31883 321.115 11.119 321.596 16.012H312.572C312.352 13.1845 311.56 11.139 310.196 9.87565C308.853 8.59222 306.797 7.95051 304.03 7.95051C301.022 7.95051 298.766 9.0334 297.262 11.1992C295.778 13.3449 295.016 16.6838 294.975 21.2159V24.5247C294.975 29.2573 295.687 32.7166 297.111 34.9024C298.555 37.0882 300.821 38.1811 303.909 38.1811C306.697 38.1811 308.772 37.5494 310.136 36.2861C311.52 35.0027 312.312 33.0274 312.512 30.3603H321.536Z" fill="url(#paint7_linear_118:615)"/>
<path d="M363.438 24.0434C363.438 28.3549 362.676 32.135 361.152 35.3837C359.628 38.6323 357.442 41.139 354.594 42.9037C351.767 44.6684 348.518 45.5508 344.848 45.5508C341.219 45.5508 337.98 44.6785 335.133 42.9338C332.285 41.1891 330.079 38.7025 328.515 35.4739C326.951 32.2252 326.159 28.4953 326.139 24.2841V22.1183C326.139 17.8068 326.911 14.0167 328.455 10.748C330.019 7.4592 332.215 4.94249 335.042 3.19784C337.89 1.43313 341.139 0.550781 344.788 0.550781C348.438 0.550781 351.677 1.43313 354.504 3.19784C357.352 4.94249 359.548 7.4592 361.092 10.748C362.656 14.0167 363.438 17.7968 363.438 22.0882V24.0434ZM354.294 22.0581C354.294 17.4659 353.471 13.9766 351.827 11.5902C350.183 9.20386 347.836 8.01067 344.788 8.01067C341.76 8.01067 339.424 9.19383 337.78 11.5601C336.135 13.9064 335.303 17.3556 335.283 21.9077V24.0434C335.283 28.5154 336.105 31.9846 337.75 34.4512C339.394 36.9178 341.76 38.151 344.848 38.151C347.877 38.151 350.203 36.9679 351.827 34.6016C353.451 32.2152 354.274 28.746 354.294 24.1938V22.0581Z" fill="url(#paint8_linear_118:615)"/>
<path d="M381.787 1.15239L393.037 32.9171L404.227 1.15239H416.078V44.9492H407.024V32.9773L407.927 12.3121L396.105 44.9492H389.909L378.117 12.3422L379.02 32.9773V44.9492H369.996V1.15239H381.787Z" fill="url(#paint9_linear_118:615)"/>
<path d="M435.751 1.15239L447.001 32.9171L458.191 1.15239H470.042V44.9492H460.988V32.9773L461.891 12.3121L450.069 44.9492H443.873L432.081 12.3422L432.984 32.9773V44.9492H423.959V1.15239H435.751Z" fill="url(#paint10_linear_118:615)"/>
<path d="M511.072 1.15239V29.9993C511.072 34.7921 509.568 38.5822 506.56 41.3696C503.572 44.1571 499.481 45.5508 494.287 45.5508C489.173 45.5508 485.113 44.1972 482.105 41.49C479.096 38.7827 477.562 35.0628 477.502 30.3302V1.15239H486.526V30.0595C486.526 32.9271 487.208 35.0227 488.572 36.3462C489.955 37.6497 491.861 38.3014 494.287 38.3014C499.361 38.3014 501.937 35.6343 502.018 30.3001V1.15239H511.072Z" fill="url(#paint11_linear_118:615)"/>
<path d="M554.086 44.9492H545.062L527.496 16.1323V44.9492H518.471V1.15239H527.496L545.092 30.0294V1.15239H554.086V44.9492Z" fill="url(#paint12_linear_118:615)"/>
<path d="M571.563 44.9492H562.539V1.15239H571.563V44.9492Z" fill="url(#paint13_linear_118:615)"/>
<path d="M612.021 8.46188H598.605V44.9492H589.581V8.46188H576.346V1.15239H612.021V8.46188Z" fill="url(#paint14_linear_118:615)"/>
<path d="M632.776 20.885L641.891 1.15239H651.757L637.379 29.0668V44.9492H628.204V29.0668L613.826 1.15239H623.722L632.776 20.885Z" fill="url(#paint15_linear_118:615)"/>
<defs>
<linearGradient id="paint0_linear_118:615" x1="326.137" y1="-40.9358" x2="326.137" y2="45.1071" gradientUnits="userSpaceOnUse">
<stop stop-color="#201854"/>
<stop offset="1" stop-color="#201854" stop-opacity="0"/>
</linearGradient>
<linearGradient id="paint1_linear_118:615" x1="326.137" y1="-40.9358" x2="326.137" y2="45.1071" gradientUnits="userSpaceOnUse">
<stop stop-color="#201854"/>
<stop offset="1" stop-color="#201854" stop-opacity="0"/>
</linearGradient>
<linearGradient id="paint2_linear_118:615" x1="326.137" y1="-40.9358" x2="326.137" y2="45.1071" gradientUnits="userSpaceOnUse">
<stop stop-color="#201854"/>
<stop offset="1" stop-color="#201854" stop-opacity="0"/>
</linearGradient>
<linearGradient id="paint3_linear_118:615" x1="326.137" y1="-40.9358" x2="326.137" y2="45.1071" gradientUnits="userSpaceOnUse">
<stop stop-color="#201854"/>
<stop offset="1" stop-color="#201854" stop-opacity="0"/>
</linearGradient>
<linearGradient id="paint4_linear_118:615" x1="326.137" y1="-40.9358" x2="326.137" y2="45.1071" gradientUnits="userSpaceOnUse">
<stop stop-color="#201854"/>
<stop offset="1" stop-color="#201854" stop-opacity="0"/>
</linearGradient>
<linearGradient id="paint5_linear_118:615" x1="326.137" y1="-40.9358" x2="326.137" y2="45.1071" gradientUnits="userSpaceOnUse">
<stop stop-color="#201854"/>
<stop offset="1" stop-color="#201854" stop-opacity="0"/>
</linearGradient>
<linearGradient id="paint6_linear_118:615" x1="326.137" y1="-40.9358" x2="326.137" y2="45.1071" gradientUnits="userSpaceOnUse">
<stop stop-color="#201854"/>
<stop offset="1" stop-color="#201854" stop-opacity="0"/>
</linearGradient>
<linearGradient id="paint7_linear_118:615" x1="326.137" y1="-40.9358" x2="326.137" y2="45.1071" gradientUnits="userSpaceOnUse">
<stop stop-color="#201854"/>
<stop offset="1" stop-color="#201854" stop-opacity="0"/>
</linearGradient>
<linearGradient id="paint8_linear_118:615" x1="326.137" y1="-40.9358" x2="326.137" y2="45.1071" gradientUnits="userSpaceOnUse">
<stop stop-color="#201854"/>
<stop offset="1" stop-color="#201854" stop-opacity="0"/>
</linearGradient>
<linearGradient id="paint9_linear_118:615" x1="326.137" y1="-40.9358" x2="326.137" y2="45.1071" gradientUnits="userSpaceOnUse">
<stop stop-color="#201854"/>
<stop offset="1" stop-color="#201854" stop-opacity="0"/>
</linearGradient>
<linearGradient id="paint10_linear_118:615" x1="326.137" y1="-40.9358" x2="326.137" y2="45.1071" gradientUnits="userSpaceOnUse">
<stop stop-color="#201854"/>
<stop offset="1" stop-color="#201854" stop-opacity="0"/>
</linearGradient>
<linearGradient id="paint11_linear_118:615" x1="326.137" y1="-40.9358" x2="326.137" y2="45.1071" gradientUnits="userSpaceOnUse">
<stop stop-color="#201854"/>
<stop offset="1" stop-color="#201854" stop-opacity="0"/>
</linearGradient>
<linearGradient id="paint12_linear_118:615" x1="326.137" y1="-40.9358" x2="326.137" y2="45.1071" gradientUnits="userSpaceOnUse">
<stop stop-color="#201854"/>
<stop offset="1" stop-color="#201854" stop-opacity="0"/>
</linearGradient>
<linearGradient id="paint13_linear_118:615" x1="326.137" y1="-40.9358" x2="326.137" y2="45.1071" gradientUnits="userSpaceOnUse">
<stop stop-color="#201854"/>
<stop offset="1" stop-color="#201854" stop-opacity="0"/>
</linearGradient>
<linearGradient id="paint14_linear_118:615" x1="326.137" y1="-40.9358" x2="326.137" y2="45.1071" gradientUnits="userSpaceOnUse">
<stop stop-color="#201854"/>
<stop offset="1" stop-color="#201854" stop-opacity="0"/>
</linearGradient>
<linearGradient id="paint15_linear_118:615" x1="326.137" y1="-40.9358" x2="326.137" y2="45.1071" gradientUnits="userSpaceOnUse">
<stop stop-color="#201854"/>
<stop offset="1" stop-color="#201854" stop-opacity="0"/>
</linearGradient>
</defs>
</svg>
