<svg width="473" height="46" viewBox="0 0 473 46" fill="none" xmlns="http://www.w3.org/2000/svg">
<path d="M12.686 1.15239L23.936 32.9171L35.1258 1.15239H46.9774V44.9492H37.9233V32.9773L38.8257 12.3121L27.0042 44.9492H20.8076L9.01619 12.3422L9.9186 32.9773V44.9492H0.894531V1.15239H12.686Z" fill="url(#paint0_linear_116:551)"/>
<path d="M81.2087 25.9686H63.8825V37.6998H84.2167V44.9492H54.8584V1.15239H84.1566V8.46188H63.8825V18.8997H81.2087V25.9686Z" fill="url(#paint1_linear_116:551)"/>
<path d="M115.861 25.9686H98.5349V37.6998H118.869V44.9492H89.5108V1.15239H118.809V8.46188H98.5349V18.8997H115.861V25.9686Z" fill="url(#paint2_linear_116:551)"/>
<path d="M157.733 8.46188H144.317V44.9492H135.293V8.46188H122.058V1.15239H157.733V8.46188Z" fill="url(#paint3_linear_116:551)"/>
<path d="M212.419 24.0434C212.419 28.3549 211.657 32.135 210.132 35.3837C208.608 38.6323 206.423 41.139 203.575 42.9037C200.747 44.6684 197.499 45.5508 193.829 45.5508C190.199 45.5508 186.961 44.6785 184.113 42.9338C181.266 41.1891 179.06 38.7025 177.495 35.4739C175.931 32.2252 175.139 28.4953 175.119 24.2841V22.1183C175.119 17.8068 175.891 14.0167 177.435 10.748C178.999 7.4592 181.195 4.94249 184.023 3.19784C186.87 1.43313 190.119 0.550781 193.769 0.550781C197.419 0.550781 200.657 1.43313 203.485 3.19784C206.332 4.94249 208.528 7.4592 210.072 10.748C211.637 14.0167 212.419 17.7968 212.419 22.0882V24.0434ZM203.274 22.0581C203.274 17.4659 202.452 13.9766 200.808 11.5902C199.163 9.20386 196.817 8.01067 193.769 8.01067C190.741 8.01067 188.405 9.19383 186.76 11.5601C185.116 13.9064 184.284 17.3556 184.264 21.9077V24.0434C184.264 28.5154 185.086 31.9846 186.73 34.4512C188.374 36.9178 190.741 38.151 193.829 38.151C196.857 38.151 199.183 36.9679 200.808 34.6016C202.432 32.2152 203.254 28.746 203.274 24.1938V22.0581Z" fill="url(#paint4_linear_116:551)"/>
<path d="M252.124 1.15239V29.9993C252.124 34.7921 250.62 38.5822 247.612 41.3696C244.624 44.1571 240.534 45.5508 235.34 45.5508C230.226 45.5508 226.165 44.1972 223.157 41.49C220.149 38.7827 218.615 35.0628 218.555 30.3302V1.15239H227.579V30.0595C227.579 32.9271 228.261 35.0227 229.624 36.3462C231.008 37.6497 232.913 38.3014 235.34 38.3014C240.413 38.3014 242.99 35.6343 243.07 30.3001V1.15239H252.124Z" fill="url(#paint5_linear_116:551)"/>
<path d="M275.737 28.9164H268.548V44.9492H259.524V1.15239H275.798C280.971 1.15239 284.962 2.30546 287.77 4.61161C290.577 6.91776 291.981 10.1764 291.981 14.3877C291.981 17.3756 291.329 19.8723 290.026 21.8777C288.742 23.8629 286.787 25.4472 284.16 26.6303L293.635 44.5281V44.9492H283.949L275.737 28.9164ZM268.548 21.6069H275.828C278.094 21.6069 279.848 21.0354 281.092 19.8924C282.335 18.7293 282.957 17.135 282.957 15.1096C282.957 13.0441 282.365 11.4198 281.182 10.2366C280.019 9.05345 278.224 8.46188 275.798 8.46188H268.548V21.6069Z" fill="url(#paint6_linear_116:551)"/>
<path d="M345.373 8.46188H331.957V44.9492H322.933V8.46188H309.698V1.15239H345.373V8.46188Z" fill="url(#paint7_linear_116:551)"/>
<path d="M376.897 25.9686H359.571V37.6998H379.905V44.9492H350.547V1.15239H379.845V8.46188H359.571V18.8997H376.897V25.9686Z" fill="url(#paint8_linear_116:551)"/>
<path d="M409.925 35.9251H394.103L391.095 44.9492H381.499L397.803 1.15239H406.165L422.559 44.9492H412.963L409.925 35.9251ZM396.54 28.6156H407.489L401.984 12.2219L396.54 28.6156Z" fill="url(#paint9_linear_116:551)"/>
<path d="M438.441 1.15239L449.691 32.9171L460.881 1.15239H472.733V44.9492H463.679V32.9773L464.581 12.3121L452.759 44.9492H446.563L434.772 12.3422L435.674 32.9773V44.9492H426.65V1.15239H438.441Z" fill="url(#paint10_linear_116:551)"/>
<defs>
<linearGradient id="paint0_linear_116:551" x1="237.152" y1="-40.9358" x2="237.152" y2="45.1071" gradientUnits="userSpaceOnUse">
<stop stop-color="#4A3F82"/>
<stop offset="1" stop-color="#2F2272" stop-opacity="0"/>
</linearGradient>
<linearGradient id="paint1_linear_116:551" x1="237.152" y1="-40.9358" x2="237.152" y2="45.1071" gradientUnits="userSpaceOnUse">
<stop stop-color="#4A3F82"/>
<stop offset="1" stop-color="#2F2272" stop-opacity="0"/>
</linearGradient>
<linearGradient id="paint2_linear_116:551" x1="237.152" y1="-40.9358" x2="237.152" y2="45.1071" gradientUnits="userSpaceOnUse">
<stop stop-color="#4A3F82"/>
<stop offset="1" stop-color="#2F2272" stop-opacity="0"/>
</linearGradient>
<linearGradient id="paint3_linear_116:551" x1="237.152" y1="-40.9358" x2="237.152" y2="45.1071" gradientUnits="userSpaceOnUse">
<stop stop-color="#4A3F82"/>
<stop offset="1" stop-color="#2F2272" stop-opacity="0"/>
</linearGradient>
<linearGradient id="paint4_linear_116:551" x1="237.152" y1="-40.9358" x2="237.152" y2="45.1071" gradientUnits="userSpaceOnUse">
<stop stop-color="#4A3F82"/>
<stop offset="1" stop-color="#2F2272" stop-opacity="0"/>
</linearGradient>
<linearGradient id="paint5_linear_116:551" x1="237.152" y1="-40.9358" x2="237.152" y2="45.1071" gradientUnits="userSpaceOnUse">
<stop stop-color="#4A3F82"/>
<stop offset="1" stop-color="#2F2272" stop-opacity="0"/>
</linearGradient>
<linearGradient id="paint6_linear_116:551" x1="237.152" y1="-40.9358" x2="237.152" y2="45.1071" gradientUnits="userSpaceOnUse">
<stop stop-color="#4A3F82"/>
<stop offset="1" stop-color="#2F2272" stop-opacity="0"/>
</linearGradient>
<linearGradient id="paint7_linear_116:551" x1="237.152" y1="-40.9358" x2="237.152" y2="45.1071" gradientUnits="userSpaceOnUse">
<stop stop-color="#4A3F82"/>
<stop offset="1" stop-color="#2F2272" stop-opacity="0"/>
</linearGradient>
<linearGradient id="paint8_linear_116:551" x1="237.152" y1="-40.9358" x2="237.152" y2="45.1071" gradientUnits="userSpaceOnUse">
<stop stop-color="#4A3F82"/>
<stop offset="1" stop-color="#2F2272" stop-opacity="0"/>
</linearGradient>
<linearGradient id="paint9_linear_116:551" x1="237.152" y1="-40.9358" x2="237.152" y2="45.1071" gradientUnits="userSpaceOnUse">
<stop stop-color="#4A3F82"/>
<stop offset="1" stop-color="#2F2272" stop-opacity="0"/>
</linearGradient>
<linearGradient id="paint10_linear_116:551" x1="237.152" y1="-40.9358" x2="237.152" y2="45.1071" gradientUnits="userSpaceOnUse">
<stop stop-color="#4A3F82"/>
<stop offset="1" stop-color="#2F2272" stop-opacity="0"/>
</linearGradient>
</defs>
</svg>
