<svg width="28" height="28" viewBox="0 0 28 28" fill="none" xmlns="http://www.w3.org/2000/svg">
<path d="M6.54327 5.6773L17.7055 2.63048L17.1144 1.43564C16.7277 0.659002 15.7844 0.338284 15.0077 0.725032L5.01514 5.6773H6.54327Z" fill="white"/>
<path d="M21.1707 2.71851C21.0324 2.71851 20.894 2.73737 20.7556 2.7751L18.1333 3.492L10.1248 5.67729H19.2149H23.1767L22.6862 3.87875C22.4976 3.17757 21.8624 2.71851 21.1707 2.71851Z" fill="white"/>
<path d="M24.8148 6.77783H24.4564H23.969H23.4816H19.7619H6.09366H4.3014H2.79214H2.5123H1.57529C1.0785 6.77783 0.635149 7.00737 0.345873 7.36896C0.213812 7.53561 0.113195 7.72741 0.0565974 7.93808C0.0220101 8.07014 0 8.20849 0 8.34998V8.53864V10.3309V25.8669C0 26.7347 0.704323 27.439 1.57215 27.439H24.8117C25.6795 27.439 26.3838 26.7347 26.3838 25.8669V21.4806H17.0547C15.58 21.4806 14.382 20.2826 14.382 18.8079V17.3678V16.8805V16.3931V15.3115C14.382 14.5883 14.6713 13.9311 15.1398 13.4501C15.5549 13.0224 16.1114 12.7331 16.734 12.6608C16.8377 12.6483 16.9446 12.642 17.0515 12.642H25.0758H25.5632H26.0505H26.3838V8.34998C26.387 7.48216 25.6827 6.77783 24.8148 6.77783Z" fill="white"/>
<path d="M27.4874 14.1449C27.3302 14.0003 27.1447 13.8902 26.9371 13.8179C26.7767 13.7645 26.607 13.733 26.4278 13.733H26.3869H26.3554H25.8681H24.1104H17.0546C16.1867 13.733 15.4824 14.4373 15.4824 15.3052V16.0881V16.5754V17.0628V18.8048C15.4824 19.6726 16.1867 20.3769 17.0546 20.3769H26.3869H26.4278C26.607 20.3769 26.7768 20.3455 26.9371 20.292C27.1447 20.2228 27.3302 20.1096 27.4874 19.965C27.8018 19.6789 27.9999 19.2638 27.9999 18.8048V15.3052C27.9999 14.8461 27.8018 14.431 27.4874 14.1449ZM20.3372 17.3678C20.3372 17.8017 19.9851 18.1539 19.5512 18.1539H19.0292C18.5953 18.1539 18.2431 17.8017 18.2431 17.3678V16.8459C18.2431 16.5943 18.3595 16.371 18.545 16.2295C18.6802 16.1258 18.8469 16.0598 19.0292 16.0598H19.1613H19.5512C19.9851 16.0598 20.3372 16.4119 20.3372 16.8459V17.3678Z" fill="white"/>
</svg>
