<svg width="156" height="54" viewBox="0 0 156 54" fill="none" xmlns="http://www.w3.org/2000/svg">
<path d="M12.0451 27.0051L6.02087 33.0259L0 27.0051L6.02087 20.9842L12.0451 27.0051ZM26.6663 12.3839L36.9873 22.7049L43.0048 16.6976L26.6629 0.342194L10.321 16.6976L16.3419 22.7185L26.6663 12.3839ZM47.3083 20.9842L41.2874 27.0051L47.3049 33.0259L53.3258 27.0051L47.3083 20.9842ZM26.6663 41.6262L16.3453 31.3052L10.321 37.3193L26.6629 53.6578L43.0048 37.3193L36.9839 31.2984L26.6663 41.6262ZM26.6663 33.0259L32.6871 27.0051L26.6663 20.9842L20.6454 27.0051L26.6663 33.0259ZM65.3743 12.3805H78.9542C82.2976 12.3805 84.9311 13.3001 86.6011 14.9701C87.2591 15.6167 87.7768 16.392 88.1217 17.2476C88.4666 18.1032 88.6314 19.0208 88.6058 19.943V20.0241C88.6058 23.327 86.8513 25.166 84.7621 26.3357C88.1427 27.6305 90.2353 29.5946 90.2353 33.5229V33.6006C90.2353 38.9488 85.8912 41.6228 79.2888 41.6228H65.3709L65.3743 12.3805ZM77.5749 24.2127C80.418 24.2127 82.2131 23.2965 82.2131 21.1228V21.0383C82.2131 19.1181 80.7087 18.0296 77.9941 18.0296H71.6385V24.2025L77.5749 24.2127ZM79.2888 35.9975C82.1319 35.9975 83.8425 34.9833 83.8425 32.8231V32.7386C83.8425 30.7745 82.3821 29.5642 79.0793 29.5642H71.6419V35.9874L79.2888 35.9975ZM96.5841 12.3907H102.52L116.225 30.3992V12.3805H122.574V41.6262H117.098L102.933 23.0329V41.6262H96.5807L96.5841 12.3907ZM130.637 12.3907H144.227C147.57 12.3907 150.204 13.3102 151.874 14.9802C152.532 15.6268 153.05 16.4021 153.395 17.2578C153.739 18.1134 153.904 19.0309 153.879 19.9531V20.0343C153.879 23.3371 152.124 25.1762 150.035 26.3458C153.415 27.6406 155.508 29.6048 155.508 33.533V33.6006C155.508 38.9488 151.164 41.6228 144.562 41.6228H130.634L130.637 12.3907ZM142.838 24.2228C145.681 24.2228 147.476 23.3067 147.476 21.1329V21.0484C147.476 19.1282 145.971 18.0397 143.257 18.0397H136.901V24.2025L142.838 24.2228ZM144.565 35.9874C147.408 35.9874 149.119 34.9732 149.119 32.813V32.7284C149.119 30.7643 147.658 29.5541 144.355 29.5541H136.918V35.9772L144.565 35.9874Z" fill="#F0B90B"/>
</svg>
