<svg width="80" height="80" viewBox="0 0 80 80" fill="none" xmlns="http://www.w3.org/2000/svg">
<circle cx="40" cy="40" r="40" fill="#201854"/>
<path d="M36.5025 22.5134H26.0107C24.0792 22.5134 22.5134 24.0792 22.5134 26.0107V53.9888C22.5134 55.9203 24.0792 57.4861 26.0107 57.4861H36.5025C38.434 57.4861 39.9998 55.9203 39.9998 53.9888V26.0107C39.9998 24.0792 38.434 22.5134 36.5025 22.5134Z" fill="#F07A3D"/>
<path d="M57.4865 53.9891V43.4972C57.4865 41.5658 55.9207 40 53.9892 40H26.0111C24.0796 40 22.5138 41.5658 22.5138 43.4972V53.9891C22.5138 55.9206 24.0796 57.4864 26.0111 57.4864H53.9892C55.9207 57.4864 57.4865 55.9206 57.4865 53.9891Z" fill="#FCD419"/>
<path d="M55.6865 31.7325L48.2676 24.3136C46.9019 22.9479 44.6876 22.9479 43.3218 24.3136L23.5382 44.0972C22.1725 45.4629 22.1725 47.6773 23.5382 49.043L30.9571 56.4618C32.3228 57.8276 34.5372 57.8276 35.903 56.4618L55.6865 36.6783C57.0523 35.3125 57.0523 33.0982 55.6865 31.7325Z" fill="#A58904"/>
<path d="M39.9998 53.9891V40H26.0107C25.0832 40 24.1936 40.3685 23.5377 41.0243C22.8819 41.6802 22.5134 42.5697 22.5134 43.4972V53.9891C22.5134 54.9166 22.8819 55.8062 23.5377 56.462C24.1936 57.1179 25.0832 57.4864 26.0107 57.4864H36.5025C37.43 57.4864 38.3196 57.1179 38.9755 56.462C39.6313 55.8062 39.9998 54.9166 39.9998 53.9891Z" fill="#D36329"/>
<path d="M40 40V52.3646L52.3646 40H40Z" fill="#FFE464"/>
<path d="M31.2568 50.4916C32.2225 50.4916 33.0054 49.7087 33.0054 48.743C33.0054 47.7773 32.2225 46.9944 31.2568 46.9944C30.2911 46.9944 29.5082 47.7773 29.5082 48.743C29.5082 49.7087 30.2911 50.4916 31.2568 50.4916Z" fill="#201854"/>
<path d="M27.6357 40H40.0003V27.6354L27.6357 40Z" fill="#FD9C69"/>
</svg>
