<svg width="80" height="80" viewBox="0 0 80 80" fill="none" xmlns="http://www.w3.org/2000/svg">
<circle cx="40" cy="40" r="40" fill="#201854"/>
<path d="M55.6641 50.8758L49.6315 40.4243C49.473 40.1395 49.2485 39.8969 48.9768 39.7168C48.7051 39.5368 48.3942 39.4245 48.0702 39.3894C47.7462 39.3543 47.4185 39.3974 47.1145 39.5151C46.8107 39.6328 46.5394 39.8218 46.3236 40.066C45.5578 41.0045 44.5929 41.761 43.4988 42.2809C42.4047 42.8008 41.2087 43.071 39.9974 43.0719C38.7861 43.0728 37.5897 42.8045 36.4948 42.2864C35.3999 41.7682 34.4339 41.0131 33.6666 40.0758C33.4505 39.8321 33.1793 39.6438 32.8755 39.5266C32.5717 39.4093 32.2442 39.3666 31.9205 39.4018C31.5967 39.4372 31.2862 39.5496 31.0148 39.7296C30.7435 39.9096 30.5192 40.152 30.3608 40.4365L24.3354 50.8759C24.2535 51.0281 24.2109 51.1984 24.2115 51.3713C24.2074 51.5071 24.2305 51.6425 24.2794 51.7693C24.3282 51.8962 24.4019 52.012 24.4961 52.11C24.5903 52.208 24.7031 52.2862 24.8279 52.3401C24.9527 52.394 25.087 52.4224 25.2229 52.4237L30.5681 52.5064L33.2923 57.088C33.3946 57.2316 33.5202 57.3572 33.6638 57.4595C33.906 57.5902 34.1892 57.6225 34.4546 57.5494C34.7199 57.4763 34.9468 57.3037 35.0879 57.0673L39.9997 48.5645L44.9117 57.0673C45.0527 57.3037 45.2795 57.4763 45.5449 57.5494C45.8102 57.6225 46.0935 57.5902 46.3357 57.4595C46.4793 57.3572 46.6048 57.2316 46.7071 57.088L49.4314 52.5064L54.7766 52.4237C54.9125 52.4224 55.0467 52.3939 55.1715 52.3401C55.2964 52.2862 55.4092 52.2079 55.5033 52.1099C55.5975 52.0119 55.6712 51.8961 55.7201 51.7692C55.7689 51.6424 55.792 51.5071 55.7879 51.3712C55.7886 51.1984 55.746 51.0281 55.6641 50.8758Z" fill="#FCD419"/>
<path d="M39.9904 47.2256C42.4445 47.2256 44.8436 46.4979 46.8841 45.1344C48.9247 43.771 50.5151 41.8331 51.4543 39.5657C52.3935 37.2984 52.6392 34.8034 52.1605 32.3964C51.6816 29.9894 50.4999 27.7784 48.7645 26.043C47.0291 24.3077 44.8182 23.1259 42.4112 22.6471C40.0041 22.1683 37.5092 22.4141 35.2418 23.3532C32.9745 24.2924 31.0365 25.8828 29.6731 27.9234C28.3096 29.964 27.5819 32.363 27.5819 34.8172C27.5819 38.1081 28.8893 41.2643 31.2163 43.5913C33.5433 45.9183 36.6994 47.2256 39.9904 47.2256Z" fill="#F07A3D"/>
<path d="M39.991 47.2252C42.0426 47.2258 44.0622 46.7172 45.8687 45.7448C47.6752 44.7723 49.212 43.3667 50.3413 41.6538L49.6316 40.4242C49.473 40.1395 49.2485 39.8969 48.9768 39.7168C48.7051 39.5368 48.3942 39.4245 48.0702 39.3894C47.7462 39.3543 47.4185 39.3974 47.1146 39.5151C46.8107 39.6328 46.5394 39.8217 46.3236 40.0659C45.5578 41.0045 44.5929 41.761 43.4988 42.2809C42.4047 42.8008 41.2087 43.071 39.9975 43.0719C38.7861 43.0729 37.5897 42.8045 36.4948 42.2864C35.3999 41.7682 34.4339 41.0131 33.6666 40.0757C33.4506 39.8321 33.1793 39.6438 32.8755 39.5265C32.5717 39.4092 32.2442 39.3665 31.9205 39.4018C31.5967 39.4372 31.2862 39.5496 31.0148 39.7296C30.7435 39.9096 30.5192 40.152 30.3608 40.4365L29.6497 41.6686C30.7798 43.3774 32.3159 44.7794 34.1206 45.7491C35.9253 46.7188 37.9423 47.226 39.991 47.2252Z" fill="#FD9C69"/>
<path d="M39.9913 38.2708L36.5815 40.0631L37.2338 36.2668L34.4762 33.5792L38.2864 33.0249L39.9913 29.5713L41.6963 33.0249L45.5066 33.5792L42.749 36.2668L43.4012 40.0631L39.9913 38.2708Z" fill="#201854"/>
</svg>
