<svg width="28" height="28" viewBox="0 0 28 28" fill="none" xmlns="http://www.w3.org/2000/svg">
<path d="M12.5329 13.1686C12.7904 12.947 13.1557 12.8033 13.6347 12.7674V15.5158C13.0479 15.3302 12.6467 15.1147 12.4251 14.929C12.2036 14.7075 12.0958 14.45 12.0958 14.0847C12.1317 13.7195 12.2754 13.4261 12.5329 13.1686ZM23.2695 4.33627C22.7904 2.57579 21.4013 1.91711 19.7904 2.36022L5.56886 6.1686H23.7485L23.2695 4.33627ZM28 10.7135V22.953C28 24.5279 26.7545 25.7735 25.1796 25.7735H2.82036C1.24551 25.7735 0 24.5279 0 22.953V10.7135C0 9.13866 1.24551 7.89315 2.82036 7.89315H25.1737C26.7186 7.89309 28 9.17459 28 10.7135ZM18.2515 19.0667C18.2515 18.1505 17.9581 17.456 17.3713 16.941C16.7844 16.426 15.9042 16.0608 14.6947 15.8033H14.6587V12.8332C15.4671 12.9409 16.2335 13.2703 16.9281 13.7493L17.9521 12.2823C16.9281 11.5876 15.8263 11.1805 14.6527 11.1086V10.3002H13.6287V11.0727C12.6048 11.1086 11.7964 11.4379 11.1377 12.0248C10.515 12.6116 10.1856 13.3421 10.1856 14.2583C10.1856 15.1745 10.479 15.8691 11.0299 16.3122C11.5808 16.7912 12.4611 17.1566 13.6347 17.4499V20.5278C12.6826 20.3841 11.8024 19.905 10.8862 19.1326L9.71257 20.5278C10.8503 21.5158 12.1677 22.1026 13.5988 22.2523V23.4261H14.6228V22.2884C15.6826 22.2523 16.5628 21.923 17.2275 21.3363C17.9222 20.7195 18.2515 19.983 18.2515 19.0667ZM14.6587 17.7135V20.5697C15.1737 20.5338 15.5749 20.3841 15.8683 20.1326C16.1616 19.8751 16.3054 19.5817 16.3054 19.2164C16.3054 18.8511 16.1976 18.5577 15.976 18.3362C15.7246 18.1147 15.3174 17.8991 14.6587 17.7135Z" fill="white"/>
</svg>
