<svg width="28" height="28" viewBox="0 0 28 28" fill="none" xmlns="http://www.w3.org/2000/svg">
<g clip-path="url(#clip0_43:52)">
<path d="M13.8004 13.4877C15.6534 13.4877 17.2579 12.8231 18.5689 11.5119C19.8799 10.2009 20.5445 8.5968 20.5445 6.74363C20.5445 4.89109 19.8799 3.28679 18.5687 1.97536C17.2575 0.664579 15.6532 0 13.8004 0C11.9473 0 10.3432 0.664579 9.03219 1.97558C7.72119 3.28658 7.0564 4.89088 7.0564 6.74363C7.0564 8.5968 7.72119 10.2011 9.0324 11.5121C10.3436 12.8229 11.9479 13.4877 13.8004 13.4877Z" fill="white"/>
<path d="M25.6007 21.5305C25.5629 20.9849 25.4864 20.3898 25.3738 19.7613C25.2602 19.1281 25.1139 18.5296 24.9387 17.9825C24.7578 17.417 24.5117 16.8586 24.2075 16.3235C23.8917 15.7681 23.5209 15.2844 23.1047 14.8864C22.6696 14.4701 22.1368 14.1353 21.5207 13.8912C20.9068 13.6483 20.2264 13.5252 19.4986 13.5252C19.2128 13.5252 18.9363 13.6425 18.4025 13.9901C18.0739 14.2043 17.6896 14.4521 17.2607 14.7262C16.8939 14.9599 16.397 15.1789 15.7833 15.3771C15.1845 15.5709 14.5765 15.6692 13.9765 15.6692C13.3764 15.6692 12.7686 15.5709 12.1692 15.3771C11.5561 15.1791 11.0592 14.9601 10.6929 14.7264C10.268 14.4549 9.88345 14.2071 9.54999 13.9899C9.01679 13.6423 8.74015 13.525 8.45432 13.525C7.7263 13.525 7.04612 13.6483 6.43239 13.8914C5.81673 14.1351 5.28374 14.4699 4.84817 14.8867C4.43224 15.2848 4.06118 15.7683 3.74587 16.3235C3.44189 16.8586 3.1958 17.4168 3.01465 17.9827C2.83969 18.5298 2.69336 19.1281 2.57971 19.7613C2.46713 20.3889 2.39066 20.9843 2.35284 21.5312C2.31567 22.0669 2.29688 22.623 2.29688 23.1846C2.29688 24.6462 2.7615 25.8295 3.67773 26.7021C4.58263 27.5632 5.77998 28.0001 7.23603 28.0001H20.7182C22.1742 28.0001 23.3711 27.5634 24.2762 26.7021C25.1927 25.8301 25.6573 24.6466 25.6573 23.1844C25.6571 22.6202 25.6381 22.0637 25.6007 21.5305Z" fill="white"/>
</g>
<defs>
<clipPath id="clip0_43:52">
<rect width="27.9999" height="28" fill="white"/>
</clipPath>
</defs>
</svg>
