<svg width="28" height="28" viewBox="0 0 28 28" fill="none" xmlns="http://www.w3.org/2000/svg">
<g clip-path="url(#clip0_43:47)">
<path d="M10.1059 15.2808C11.2047 15.888 12.3728 16.3506 13.5294 16.8306C14.2003 17.1082 14.8422 17.432 15.4089 17.8831C16.525 18.7737 16.311 20.2194 15.0041 20.7919C14.634 20.9538 14.2465 21.0059 13.8533 21.029C12.3381 21.11 10.8982 20.8324 9.52765 20.1731C8.84526 19.8435 8.61973 19.9476 8.38841 20.6589C8.14553 21.4107 7.94312 22.174 7.71759 22.9316C7.56723 23.4405 7.75229 23.7759 8.23227 23.9899C9.11128 24.3773 10.0134 24.6549 10.9618 24.8053C12.1994 24.9961 12.1994 25.0019 12.2051 26.2452C12.2109 27.9974 12.2109 27.9974 13.9689 27.9974C14.2234 27.9974 14.4778 28.0032 14.7323 27.9974C15.5535 27.9743 15.6922 27.8297 15.7154 27.0028C15.7269 26.6327 15.7154 26.2626 15.7212 25.8867C15.7269 24.7879 15.7327 24.8053 16.7852 24.4236C19.3297 23.4983 20.9027 21.7634 21.0704 18.9876C21.2207 16.5299 19.9369 14.8702 17.9187 13.6616C16.6753 12.9156 15.299 12.4761 13.9805 11.892C13.4658 11.6664 12.9743 11.4062 12.5463 11.0477C11.2799 10.001 11.5112 8.2603 13.0148 7.60105C13.8186 7.24829 14.6687 7.16154 15.5419 7.27142C16.8893 7.43912 18.1789 7.79188 19.3933 8.42222C20.1046 8.79233 20.3128 8.69402 20.5557 7.92489C20.7639 7.25985 20.9489 6.58903 21.134 5.91821C21.3826 5.01608 21.2901 4.80211 20.4285 4.37996C19.3297 3.84793 18.1558 3.57613 16.9587 3.38529C16.0219 3.23493 15.993 3.19445 15.9814 2.22292C15.9756 1.78342 15.9756 1.33813 15.9698 0.898632C15.964 0.34347 15.698 0.0196266 15.1255 0.00806046C14.4778 -0.00350571 13.8244 -0.0035038 13.1767 0.0138435C12.6446 0.0254097 12.3728 0.314556 12.3728 0.852369C12.3728 1.45379 12.3439 2.061 12.3671 2.66242C12.396 3.27542 12.13 3.58769 11.5401 3.74961C10.1811 4.11972 9.02453 4.84837 8.13396 5.93556C5.65887 8.94268 6.60149 13.3435 10.1059 15.2808Z" fill="white"/>
</g>
<defs>
<clipPath id="clip0_43:47">
<rect width="28" height="28" fill="white" transform="translate(28 28) rotate(-180)"/>
</clipPath>
</defs>
</svg>
