<svg width="28" height="28" viewBox="0 0 28 28" fill="none" xmlns="http://www.w3.org/2000/svg">
<path d="M19.8181 9.712C21.8187 7.91989 22.9618 5.3609 22.9618 2.67568V1.36149C22.9618 0.813848 22.5176 0.370605 21.9709 0.370605H6.02924C5.4816 0.370605 5.03809 0.813848 5.03809 1.36149V2.67568C5.03809 5.36095 6.18144 7.91994 8.18109 9.712L9.49523 10.889C10.3813 11.6833 10.8895 12.8158 10.8932 14.0062C10.8966 15.1967 10.3947 16.3318 9.51311 17.1313L8.14122 18.3743C6.1653 20.1657 5.03809 22.7076 5.03809 25.375V26.6386C5.03809 27.1859 5.4816 27.6295 6.02924 27.6295H21.9709C22.5176 27.6295 22.9618 27.1859 22.9618 26.6386V25.375C22.9618 22.7076 21.8346 20.1657 19.859 18.3743L18.4868 17.1313C17.6045 16.3318 17.1032 15.1966 17.107 14.0062C17.1105 12.8157 17.6189 11.6832 18.5047 10.889L19.8181 9.712ZM17.5725 18.9138C19.2695 19.8755 20.3194 21.6758 20.3194 23.6273V24.6967C20.3194 25.0848 20.005 25.3991 19.6168 25.3991H8.3831C7.99515 25.3991 7.6808 25.0848 7.6808 24.6967V23.6273C7.6808 21.6765 8.72944 19.8755 10.4283 18.9138L13.3985 17.231C13.7716 17.0201 14.2292 17.0201 14.6024 17.231L17.5725 18.9138Z" fill="white"/>
</svg>
