<svg width="28" height="28" viewBox="0 0 28 28" fill="none" xmlns="http://www.w3.org/2000/svg">
<g clip-path="url(#clip0_43:119)">
<path d="M25.2049 1.39754C23.6624 1.39207 22.4098 2.64466 22.4044 4.18715C22.4044 4.91463 22.6833 5.61477 23.192 6.1344L18.0777 16.3684C17.9684 16.352 17.8535 16.3356 17.7386 16.3356C17.3776 16.3356 17.0166 16.4067 16.6829 16.5435L12.7119 12.0746C12.9416 11.6644 13.0674 11.2049 13.0729 10.729C13.0729 9.18109 11.8203 7.9285 10.2723 7.9285C8.72436 7.9285 7.47177 9.18109 7.47177 10.729C7.47724 11.3964 7.71791 12.0418 8.16097 12.545L3.2983 21.0506C3.13421 21.0178 2.96464 21.0014 2.80055 21.0014C1.25259 21.0014 0 22.254 0 23.8019C0 25.3499 1.25259 26.6025 2.80055 26.6025C4.34851 26.6025 5.60109 25.3499 5.60109 23.8019C5.59562 23.1346 5.35495 22.4892 4.9119 21.9859L9.7691 13.4804C10.2887 13.5843 10.8302 13.5296 11.3171 13.3217L15.2881 17.7906C15.0584 18.2008 14.9381 18.6658 14.9326 19.1362C14.9271 20.6841 16.1797 21.9422 17.7222 21.9476C19.2702 21.9531 20.5282 20.7005 20.5337 19.158C20.5337 18.4306 20.2547 17.7249 19.746 17.1998L24.8603 6.96581C24.9697 6.98222 25.0846 6.99863 25.1995 6.99863C26.7474 6.99863 28 5.74605 28 4.19809C28 2.65013 26.7529 1.39754 25.2049 1.39754Z" fill="white"/>
</g>
<defs>
<clipPath id="clip0_43:119">
<rect width="28" height="28" fill="white"/>
</clipPath>
</defs>
</svg>
