<svg width="28" height="28" viewBox="0 0 28 28" fill="none" xmlns="http://www.w3.org/2000/svg">
<g clip-path="url(#clip0_43:60)">
<path d="M7.87492 6.41667C7.23092 6.41667 6.70825 5.894 6.70825 5.25V1.16667C6.70825 0.522667 7.23092 0 7.87492 0C8.51892 0 9.04159 0.522667 9.04159 1.16667V5.25C9.04159 5.894 8.51892 6.41667 7.87492 6.41667Z" fill="white"/>
<path d="M13.4167 6.41667C12.7727 6.41667 12.25 5.894 12.25 5.25V1.16667C12.25 0.522667 12.7727 0 13.4167 0C14.0607 0 14.5833 0.522667 14.5833 1.16667V5.25C14.5833 5.894 14.0607 6.41667 13.4167 6.41667Z" fill="white"/>
<path d="M18.9584 6.41667C18.3144 6.41667 17.7917 5.894 17.7917 5.25V1.16667C17.7917 0.522667 18.3144 0 18.9584 0C19.6024 0 20.1251 0.522667 20.1251 1.16667V5.25C20.1251 5.894 19.6024 6.41667 18.9584 6.41667Z" fill="white"/>
<path d="M21.2916 2.625H5.54159C3.77175 2.625 2.33325 4.0635 2.33325 5.83333V24.7917C2.33325 26.5615 3.77175 28 5.54159 28H21.2916C23.0614 28 24.4999 26.5615 24.4999 24.7917V5.83333C24.4999 4.0635 23.0614 2.625 21.2916 2.625ZM8.16659 9.33333H13.9999C14.6439 9.33333 15.1666 9.856 15.1666 10.5C15.1666 11.144 14.6439 11.6667 13.9999 11.6667H8.16659C7.52259 11.6667 6.99992 11.144 6.99992 10.5C6.99992 9.856 7.52259 9.33333 8.16659 9.33333ZM19.8333 21H8.16659C7.52259 21 6.99992 20.4773 6.99992 19.8333C6.99992 19.1893 7.52259 18.6667 8.16659 18.6667H19.8333C20.4773 18.6667 20.9999 19.1893 20.9999 19.8333C20.9999 20.4773 20.4773 21 19.8333 21ZM19.8333 16.3333H8.16659C7.52259 16.3333 6.99992 15.8107 6.99992 15.1667C6.99992 14.5227 7.52259 14 8.16659 14H19.8333C20.4773 14 20.9999 14.5227 20.9999 15.1667C20.9999 15.8107 20.4773 16.3333 19.8333 16.3333Z" fill="white"/>
</g>
<defs>
<clipPath id="clip0_43:60">
<rect width="28" height="28" fill="white"/>
</clipPath>
</defs>
</svg>
