<svg width="648" height="48" viewBox="0 0 648 48" fill="none" xmlns="http://www.w3.org/2000/svg">
<path d="M12.675 39.3509H35.7351V46.9224H0.893555V41.393L23.5139 8.81348H0.924972V1.17912H35.2325V6.58287L12.675 39.3509Z" fill="url(#paint0_linear_116:30)"/>
<path d="M78.4624 25.0875C78.4624 29.5907 77.6665 33.5388 76.0747 36.9318C74.4829 40.3248 72.1999 42.9429 69.2258 44.7861C66.2726 46.6292 62.8795 47.5508 59.0466 47.5508C55.2556 47.5508 51.8731 46.6397 48.8989 44.8175C45.9248 42.9953 43.6208 40.3982 41.9871 37.026C40.3534 33.633 39.5261 29.7373 39.5052 25.3389V23.0769C39.5052 18.5737 40.3116 14.6152 41.9243 11.2012C43.558 7.76624 45.8514 5.13768 48.8047 3.31549C51.7788 1.47235 55.1719 0.550781 58.9838 0.550781C62.7957 0.550781 66.1783 1.47235 69.1315 3.31549C72.1057 5.13768 74.3991 7.76624 76.0119 11.2012C77.6456 14.6152 78.4624 18.5633 78.4624 23.0454V25.0875ZM68.9116 23.014C68.9116 18.2177 68.0529 14.5733 66.3354 12.0809C64.6179 9.58844 62.1674 8.34223 58.9838 8.34223C55.8211 8.34223 53.3811 9.57797 51.6636 12.0494C49.9461 14.5 49.0769 18.1025 49.056 22.8569V25.0875C49.056 29.7582 49.9147 33.3817 51.6322 35.9579C53.3497 38.5341 55.8211 39.8222 59.0466 39.8222C62.2093 39.8222 64.6389 38.5864 66.3354 36.115C68.0319 33.6225 68.8907 29.9991 68.9116 25.2446V23.014Z" fill="url(#paint1_linear_116:30)"/>
<path d="M122.509 46.9224H113.084L94.7365 16.8248V46.9224H85.3113V1.17912H94.7365L113.115 31.3396V1.17912H122.509V46.9224Z" fill="url(#paint2_linear_116:30)"/>
<path d="M168.315 25.0875C168.315 29.5907 167.519 33.5388 165.928 36.9318C164.336 40.3248 162.053 42.9429 159.079 44.7861C156.126 46.6292 152.732 47.5508 148.9 47.5508C145.109 47.5508 141.726 46.6397 138.752 44.8175C135.778 42.9953 133.474 40.3982 131.84 37.026C130.206 33.633 129.379 29.7373 129.358 25.3389V23.0769C129.358 18.5737 130.165 14.6152 131.777 11.2012C133.411 7.76624 135.704 5.13768 138.658 3.31549C141.632 1.47235 145.025 0.550781 148.837 0.550781C152.649 0.550781 156.031 1.47235 158.984 3.31549C161.959 5.13768 164.252 7.76624 165.865 11.2012C167.499 14.6152 168.315 18.5633 168.315 23.0454V25.0875ZM158.765 23.014C158.765 18.2177 157.906 14.5733 156.188 12.0809C154.471 9.58844 152.02 8.34223 148.837 8.34223C145.674 8.34223 143.234 9.57797 141.517 12.0494C139.799 14.5 138.93 18.1025 138.909 22.8569V25.0875C138.909 29.7582 139.768 33.3817 141.485 35.9579C143.203 38.5341 145.674 39.8222 148.9 39.8222C152.062 39.8222 154.492 38.5864 156.188 36.115C157.885 33.6225 158.744 29.9991 158.765 25.2446V23.014Z" fill="url(#paint3_linear_116:30)"/>
<path d="M211.074 31.6851C210.718 36.6072 208.896 40.4819 205.607 43.3095C202.34 46.137 198.025 47.5508 192.664 47.5508C186.799 47.5508 182.181 45.582 178.809 41.6444C175.458 37.6858 173.782 32.2611 173.782 25.3703V22.5742C173.782 18.1758 174.557 14.301 176.107 10.9498C177.657 7.59869 179.866 5.03296 182.736 3.25265C185.626 1.45141 188.977 0.550781 192.789 0.550781C198.067 0.550781 202.319 1.96455 205.545 4.79209C208.77 7.61963 210.634 11.5887 211.137 16.6992H201.712C201.481 13.746 200.654 11.6096 199.23 10.2901C197.826 8.94962 195.68 8.27939 192.789 8.27939C189.648 8.27939 187.291 9.41041 185.72 11.6724C184.171 13.9135 183.375 17.4008 183.333 22.1343V25.5902C183.333 30.5332 184.076 34.1461 185.563 36.4291C187.071 38.7121 189.438 39.8536 192.664 39.8536C195.575 39.8536 197.743 39.1938 199.167 37.8743C200.612 36.5338 201.439 34.4708 201.649 31.6851H211.074Z" fill="url(#paint4_linear_116:30)"/>
<path d="M254.838 25.0875C254.838 29.5907 254.042 33.5388 252.45 36.9318C250.859 40.3248 248.576 42.9429 245.601 44.7861C242.648 46.6292 239.255 47.5508 235.422 47.5508C231.631 47.5508 228.249 46.6397 225.275 44.8175C222.3 42.9953 219.997 40.3982 218.363 37.026C216.729 33.633 215.902 29.7373 215.881 25.3389V23.0769C215.881 18.5737 216.687 14.6152 218.3 11.2012C219.934 7.76624 222.227 5.13768 225.18 3.31549C228.154 1.47235 231.548 0.550781 235.359 0.550781C239.171 0.550781 242.554 1.47235 245.507 3.31549C248.481 5.13768 250.775 7.76624 252.388 11.2012C254.021 14.6152 254.838 18.5633 254.838 23.0454V25.0875ZM245.287 23.014C245.287 18.2177 244.429 14.5733 242.711 12.0809C240.994 9.58844 238.543 8.34223 235.359 8.34223C232.197 8.34223 229.757 9.57797 228.039 12.0494C226.322 14.5 225.453 18.1025 225.432 22.8569V25.0875C225.432 29.7582 226.29 33.3817 228.008 35.9579C229.725 38.5341 232.197 39.8222 235.422 39.8222C238.585 39.8222 241.015 38.5864 242.711 36.115C244.408 33.6225 245.266 29.9991 245.287 25.2446V23.014Z" fill="url(#paint5_linear_116:30)"/>
<path d="M271.709 46.9224H262.284V1.17912H271.709V46.9224Z" fill="url(#paint6_linear_116:30)"/>
<path d="M317.672 46.9224H308.247L289.9 16.8248V46.9224H280.474V1.17912H289.9L308.279 31.3396V1.17912H317.672V46.9224Z" fill="url(#paint7_linear_116:30)"/>
<path d="M358.86 30.1771H351.351V46.9224H341.926V1.17912H358.923C364.327 1.17912 368.495 2.38345 371.427 4.79209C374.359 7.20074 375.825 10.6043 375.825 15.0027C375.825 18.1234 375.145 20.731 373.783 22.8255C372.443 24.899 370.401 26.5537 367.657 27.7894L377.553 46.4826V46.9224H367.437L358.86 30.1771ZM351.351 22.5428H358.954C361.321 22.5428 363.154 21.9458 364.452 20.752C365.751 19.5372 366.4 17.8721 366.4 15.7567C366.4 13.5994 365.782 11.9028 364.547 10.6671C363.332 9.43135 361.457 8.81348 358.923 8.81348H351.351V22.5428Z" fill="url(#paint8_linear_116:30)"/>
<path d="M420.595 25.0875C420.595 29.5907 419.799 33.5388 418.207 36.9318C416.615 40.3248 414.332 42.9429 411.358 44.7861C408.405 46.6292 405.012 47.5508 401.179 47.5508C397.388 47.5508 394.005 46.6397 391.031 44.8175C388.057 42.9953 385.753 40.3982 384.12 37.026C382.486 33.633 381.658 29.7373 381.638 25.3389V23.0769C381.638 18.5737 382.444 14.6152 384.057 11.2012C385.69 7.76624 387.984 5.13768 390.937 3.31549C393.911 1.47235 397.304 0.550781 401.116 0.550781C404.928 0.550781 408.311 1.47235 411.264 3.31549C414.238 5.13768 416.531 7.76624 418.144 11.2012C419.778 14.6152 420.595 18.5633 420.595 23.0454V25.0875ZM411.044 23.014C411.044 18.2177 410.185 14.5733 408.468 12.0809C406.75 9.58844 404.3 8.34223 401.116 8.34223C397.954 8.34223 395.513 9.57797 393.796 12.0494C392.079 14.5 391.209 18.1025 391.188 22.8569V25.0875C391.188 29.7582 392.047 33.3817 393.765 35.9579C395.482 38.5341 397.954 39.8222 401.179 39.8222C404.342 39.8222 406.771 38.5864 408.468 36.115C410.164 33.6225 411.023 29.9991 411.044 25.2446V23.014Z" fill="url(#paint9_linear_116:30)"/>
<path d="M452.577 37.4973H436.052L432.91 46.9224H422.888L439.916 1.17912H448.65L465.773 46.9224H455.751L452.577 37.4973ZM438.597 29.8629H450.033L444.283 12.7406L438.597 29.8629Z" fill="url(#paint10_linear_116:30)"/>
<path d="M470.045 46.9224V1.17912H484.12C488.142 1.17912 491.734 2.09022 494.896 3.91241C498.08 5.71366 500.562 8.28986 502.342 11.641C504.122 14.9712 505.013 18.7622 505.013 23.014V25.119C505.013 29.3707 504.133 33.1513 502.374 36.4605C500.635 39.7698 498.174 42.3355 494.99 44.1577C491.807 45.9799 488.215 46.9015 484.214 46.9224H470.045ZM479.47 8.81348V39.3509H484.026C487.712 39.3509 490.529 38.1466 492.477 35.7379C494.425 33.3293 495.42 29.8839 495.462 25.4017V22.9826C495.462 18.3329 494.498 14.8142 492.571 12.4265C490.644 10.0178 487.827 8.81348 484.12 8.81348H479.47Z" fill="url(#paint11_linear_116:30)"/>
<path d="M524.208 1.17912L535.958 34.3556L547.646 1.17912H560.024V46.9224H550.567V34.4184L551.51 12.8349L539.163 46.9224H532.691L520.376 12.8663L521.318 34.4184V46.9224H511.893V1.17912H524.208Z" fill="url(#paint12_linear_116:30)"/>
<path d="M594.646 37.4973H578.12L574.978 46.9224H564.956L581.984 1.17912H590.718L607.841 46.9224H597.819L594.646 37.4973ZM580.665 29.8629H592.101L586.351 12.7406L580.665 29.8629Z" fill="url(#paint13_linear_116:30)"/>
<path d="M621.539 30.8055V46.9224H612.113V1.17912H629.958C633.393 1.17912 636.409 1.80747 639.007 3.06415C641.625 4.32083 643.635 6.11161 645.039 8.43648C646.442 10.7404 647.144 13.369 647.144 16.3222C647.144 20.8043 645.604 24.344 642.525 26.9412C639.467 29.5174 635.226 30.8055 629.801 30.8055H621.539ZM621.539 23.1711H629.958C632.451 23.1711 634.346 22.5846 635.645 21.4117C636.964 20.2388 637.624 18.5633 637.624 16.385C637.624 14.1439 636.964 12.3322 635.645 10.9498C634.325 9.56749 632.503 8.85537 630.178 8.81348H621.539V23.1711Z" fill="url(#paint14_linear_116:30)"/>
<defs>
<linearGradient id="paint0_linear_116:30" x1="324.5" y1="-42.7796" x2="324.5" y2="47.0874" gradientUnits="userSpaceOnUse">
<stop stop-color="#201854"/>
<stop offset="1" stop-color="#201854" stop-opacity="0"/>
</linearGradient>
<linearGradient id="paint1_linear_116:30" x1="324.5" y1="-42.7796" x2="324.5" y2="47.0874" gradientUnits="userSpaceOnUse">
<stop stop-color="#201854"/>
<stop offset="1" stop-color="#201854" stop-opacity="0"/>
</linearGradient>
<linearGradient id="paint2_linear_116:30" x1="324.5" y1="-42.7796" x2="324.5" y2="47.0874" gradientUnits="userSpaceOnUse">
<stop stop-color="#201854"/>
<stop offset="1" stop-color="#201854" stop-opacity="0"/>
</linearGradient>
<linearGradient id="paint3_linear_116:30" x1="324.5" y1="-42.7796" x2="324.5" y2="47.0874" gradientUnits="userSpaceOnUse">
<stop stop-color="#201854"/>
<stop offset="1" stop-color="#201854" stop-opacity="0"/>
</linearGradient>
<linearGradient id="paint4_linear_116:30" x1="324.5" y1="-42.7796" x2="324.5" y2="47.0874" gradientUnits="userSpaceOnUse">
<stop stop-color="#201854"/>
<stop offset="1" stop-color="#201854" stop-opacity="0"/>
</linearGradient>
<linearGradient id="paint5_linear_116:30" x1="324.5" y1="-42.7796" x2="324.5" y2="47.0874" gradientUnits="userSpaceOnUse">
<stop stop-color="#201854"/>
<stop offset="1" stop-color="#201854" stop-opacity="0"/>
</linearGradient>
<linearGradient id="paint6_linear_116:30" x1="324.5" y1="-42.7796" x2="324.5" y2="47.0874" gradientUnits="userSpaceOnUse">
<stop stop-color="#201854"/>
<stop offset="1" stop-color="#201854" stop-opacity="0"/>
</linearGradient>
<linearGradient id="paint7_linear_116:30" x1="324.5" y1="-42.7796" x2="324.5" y2="47.0874" gradientUnits="userSpaceOnUse">
<stop stop-color="#201854"/>
<stop offset="1" stop-color="#201854" stop-opacity="0"/>
</linearGradient>
<linearGradient id="paint8_linear_116:30" x1="324.5" y1="-42.7796" x2="324.5" y2="47.0874" gradientUnits="userSpaceOnUse">
<stop stop-color="#201854"/>
<stop offset="1" stop-color="#201854" stop-opacity="0"/>
</linearGradient>
<linearGradient id="paint9_linear_116:30" x1="324.5" y1="-42.7796" x2="324.5" y2="47.0874" gradientUnits="userSpaceOnUse">
<stop stop-color="#201854"/>
<stop offset="1" stop-color="#201854" stop-opacity="0"/>
</linearGradient>
<linearGradient id="paint10_linear_116:30" x1="324.5" y1="-42.7796" x2="324.5" y2="47.0874" gradientUnits="userSpaceOnUse">
<stop stop-color="#201854"/>
<stop offset="1" stop-color="#201854" stop-opacity="0"/>
</linearGradient>
<linearGradient id="paint11_linear_116:30" x1="324.5" y1="-42.7796" x2="324.5" y2="47.0874" gradientUnits="userSpaceOnUse">
<stop stop-color="#201854"/>
<stop offset="1" stop-color="#201854" stop-opacity="0"/>
</linearGradient>
<linearGradient id="paint12_linear_116:30" x1="324.5" y1="-42.7796" x2="324.5" y2="47.0874" gradientUnits="userSpaceOnUse">
<stop stop-color="#201854"/>
<stop offset="1" stop-color="#201854" stop-opacity="0"/>
</linearGradient>
<linearGradient id="paint13_linear_116:30" x1="324.5" y1="-42.7796" x2="324.5" y2="47.0874" gradientUnits="userSpaceOnUse">
<stop stop-color="#201854"/>
<stop offset="1" stop-color="#201854" stop-opacity="0"/>
</linearGradient>
<linearGradient id="paint14_linear_116:30" x1="324.5" y1="-42.7796" x2="324.5" y2="47.0874" gradientUnits="userSpaceOnUse">
<stop stop-color="#201854"/>
<stop offset="1" stop-color="#201854" stop-opacity="0"/>
</linearGradient>
</defs>
</svg>
