<svg width="635" height="47" viewBox="0 0 635 47" fill="none" xmlns="http://www.w3.org/2000/svg">
<path d="M12.411 38.5311H34.9907V45.9448H0.875V40.5306L23.0241 8.62985H0.905762V1.15454H34.4985V6.44571L12.411 38.5311Z" fill="url(#paint0_linear_116:31)"/>
<path d="M76.8277 24.5648C76.8277 28.9742 76.0484 32.8401 74.4898 36.1624C72.9311 39.4847 70.6957 42.0483 67.7836 43.8531C64.8919 45.6578 61.5695 46.5602 57.8164 46.5602C54.1044 46.5602 50.7924 45.668 47.8801 43.8838C44.968 42.0996 42.712 39.5566 41.1123 36.2546C39.5127 32.9323 38.7026 29.1178 38.6821 24.811V22.5961C38.6821 18.1867 39.4717 14.3107 41.0508 10.9678C42.6505 7.60444 44.8961 5.03065 47.7879 3.24642C50.7 1.44168 54.0224 0.539307 57.7549 0.539307C61.4874 0.539307 64.7995 1.44168 67.6912 3.24642C70.6035 5.03065 72.8491 7.60444 74.4283 10.9678C76.0279 14.3107 76.8277 18.1766 76.8277 22.5653V24.5648ZM67.4759 22.5345C67.4759 17.8382 66.6351 14.2697 64.9534 11.8292C63.2717 9.38868 60.8722 8.16843 57.7549 8.16843C54.6581 8.16843 52.2689 9.37843 50.5872 11.7984C48.9055 14.1979 48.0544 17.7254 48.034 22.3807V24.5648C48.034 29.1382 48.8748 32.6862 50.5565 35.2088C52.2382 37.7313 54.6581 38.9926 57.8164 38.9926C60.9132 38.9926 63.2922 37.7825 64.9534 35.3626C66.6145 32.922 67.4554 29.3741 67.4759 24.7187V22.5345Z" fill="url(#paint1_linear_116:31)"/>
<path d="M119.957 45.9448H110.728L92.7628 16.4743V45.9448H83.5339V1.15454H92.7628L110.758 30.6867V1.15454H119.957V45.9448Z" fill="url(#paint2_linear_116:31)"/>
<path d="M164.808 24.5648C164.808 28.9742 164.029 32.8401 162.471 36.1624C160.912 39.4847 158.677 42.0483 155.765 43.8531C152.873 45.6578 149.55 46.5602 145.798 46.5602C142.086 46.5602 138.773 45.668 135.861 43.8838C132.949 42.0996 130.693 39.5566 129.093 36.2546C127.493 32.9323 126.684 29.1178 126.663 24.811V22.5961C126.663 18.1867 127.453 14.3107 129.032 10.9678C130.632 7.60444 132.877 5.03065 135.769 3.24642C138.681 1.44168 142.004 0.539307 145.736 0.539307C149.469 0.539307 152.78 1.44168 155.672 3.24642C158.585 5.03065 160.83 7.60444 162.41 10.9678C164.009 14.3107 164.808 18.1766 164.808 22.5653V24.5648ZM155.457 22.5345C155.457 17.8382 154.616 14.2697 152.934 11.8292C151.253 9.38868 148.853 8.16843 145.736 8.16843C142.639 8.16843 140.25 9.37843 138.569 11.7984C136.887 14.1979 136.036 17.7254 136.015 22.3807V24.5648C136.015 29.1382 136.856 32.6862 138.537 35.2088C140.22 37.7313 142.639 38.9926 145.798 38.9926C148.894 38.9926 151.273 37.7825 152.934 35.3626C154.596 32.922 155.437 29.3741 155.457 24.7187V22.5345Z" fill="url(#paint3_linear_116:31)"/>
<path d="M206.677 31.025C206.328 35.8445 204.544 39.6385 201.324 42.4072C198.125 45.1758 193.9 46.5602 188.65 46.5602C182.907 46.5602 178.386 44.6324 175.084 40.7768C171.803 36.9007 170.162 31.589 170.162 24.8418V22.1039C170.162 17.7971 170.92 14.0031 172.438 10.7217C173.956 7.44038 176.119 4.92811 178.929 3.18489C181.759 1.42117 185.04 0.539307 188.773 0.539307C193.941 0.539307 198.104 1.92362 201.263 4.69226C204.421 7.46089 206.246 11.3473 206.738 16.3513H197.51C197.284 13.4596 196.474 11.3677 195.079 10.0757C193.705 8.76317 191.603 8.1069 188.773 8.1069C185.697 8.1069 183.389 9.21436 181.851 11.4292C180.334 13.6236 179.555 17.0383 179.514 21.6732V25.0571C179.514 29.8971 180.241 33.4347 181.697 35.6702C183.174 37.9056 185.491 39.0233 188.65 39.0233C191.501 39.0233 193.623 38.3773 195.018 37.0852C196.433 35.7727 197.242 33.7527 197.448 31.025H206.677Z" fill="url(#paint4_linear_116:31)"/>
<path d="M249.529 24.5648C249.529 28.9742 248.75 32.8401 247.191 36.1624C245.633 39.4847 243.397 42.0483 240.484 43.8531C237.593 45.6578 234.271 46.5602 230.517 46.5602C226.805 46.5602 223.494 45.668 220.582 43.8838C217.669 42.0996 215.414 39.5566 213.814 36.2546C212.214 32.9323 211.404 29.1178 211.384 24.811V22.5961C211.384 18.1867 212.173 14.3107 213.752 10.9678C215.352 7.60444 217.597 5.03065 220.489 3.24642C223.401 1.44168 226.724 0.539307 230.456 0.539307C234.188 0.539307 237.501 1.44168 240.392 3.24642C243.304 5.03065 245.551 7.60444 247.13 10.9678C248.729 14.3107 249.529 18.1766 249.529 22.5653V24.5648ZM240.177 22.5345C240.177 17.8382 239.337 14.2697 237.655 11.8292C235.973 9.38868 233.573 8.16843 230.456 8.16843C227.36 8.16843 224.97 9.37843 223.288 11.7984C221.607 14.1979 220.756 17.7254 220.736 22.3807V24.5648C220.736 29.1382 221.576 32.6862 223.258 35.2088C224.939 37.7313 227.36 38.9926 230.517 38.9926C233.615 38.9926 235.994 37.7825 237.655 35.3626C239.316 32.922 240.156 29.3741 240.177 24.7187V22.5345Z" fill="url(#paint5_linear_116:31)"/>
<path d="M266.048 45.9448H256.82V1.15454H266.048V45.9448Z" fill="url(#paint6_linear_116:31)"/>
<path d="M311.054 45.9448H301.825L283.86 16.4743V45.9448H274.631V1.15454H283.86L301.857 30.6867V1.15454H311.054V45.9448Z" fill="url(#paint7_linear_116:31)"/>
<path d="M351.384 29.5484H344.031V45.9448H334.802V1.15454H351.445C356.737 1.15454 360.818 2.33378 363.689 4.69224C366.56 7.05071 367.995 10.3834 367.995 14.6901C367.995 17.7458 367.329 20.2991 365.996 22.35C364.684 24.3803 362.684 26.0005 359.997 27.2104L369.687 45.5142V45.9448H359.782L351.384 29.5484ZM344.031 22.0731H351.476C353.793 22.0731 355.588 21.4886 356.859 20.3197C358.131 19.1302 358.767 17.4998 358.767 15.4284C358.767 13.3161 358.161 11.6548 356.952 10.4449C355.763 9.23485 353.927 8.62985 351.445 8.62985H344.031V22.0731Z" fill="url(#paint8_linear_116:31)"/>
<path d="M411.833 24.5648C411.833 28.9742 411.053 32.8401 409.494 36.1624C407.936 39.4847 405.7 42.0483 402.788 43.8531C399.897 45.6578 396.574 46.5602 392.821 46.5602C389.109 46.5602 385.797 45.668 382.885 43.8838C379.973 42.0996 377.717 39.5566 376.118 36.2546C374.518 32.9323 373.707 29.1178 373.687 24.811V22.5961C373.687 18.1867 374.476 14.3107 376.056 10.9678C377.655 7.60444 379.901 5.03065 382.793 3.24642C385.705 1.44168 389.027 0.539307 392.759 0.539307C396.492 0.539307 399.805 1.44168 402.696 3.24642C405.608 5.03065 407.853 7.60444 409.433 10.9678C411.033 14.3107 411.833 18.1766 411.833 22.5653V24.5648ZM402.481 22.5345C402.481 17.8382 401.64 14.2697 399.958 11.8292C398.276 9.38868 395.877 8.16843 392.759 8.16843C389.663 8.16843 387.273 9.37843 385.592 11.7984C383.911 14.1979 383.059 17.7254 383.038 22.3807V24.5648C383.038 29.1382 383.879 32.6862 385.562 35.2088C387.243 37.7313 389.663 38.9926 392.821 38.9926C395.918 38.9926 398.297 37.7825 399.958 35.3626C401.619 32.922 402.46 29.3741 402.481 24.7187V22.5345Z" fill="url(#paint9_linear_116:31)"/>
<path d="M443.148 36.7161H426.968L423.891 45.9448H414.078L430.751 1.15454H439.303L456.069 45.9448H446.256L443.148 36.7161ZM429.46 29.2407H440.657L435.027 12.4752L429.46 29.2407Z" fill="url(#paint10_linear_116:31)"/>
<path d="M460.252 45.9448V1.15454H474.034C477.972 1.15454 481.49 2.04666 484.586 3.83089C487.703 5.59461 490.134 8.11714 491.877 11.3985C493.62 14.6593 494.492 18.3713 494.492 22.5345V24.5957C494.492 28.7588 493.63 32.4606 491.908 35.7009C490.205 38.9412 487.795 41.4535 484.678 43.2377C481.561 45.022 478.044 45.9244 474.126 45.9448H460.252ZM469.481 8.62985V38.5311H473.942C477.551 38.5311 480.31 37.3519 482.217 34.9933C484.125 32.6349 485.099 29.2613 485.14 24.8725V22.5038C485.14 17.951 484.196 14.5056 482.309 12.1676C480.422 9.80908 477.664 8.62985 474.034 8.62985H469.481Z" fill="url(#paint11_linear_116:31)"/>
<path d="M513.287 1.15454L524.792 33.6398L536.237 1.15454H548.357V45.9448H539.097V33.7013L540.02 12.5675L527.93 45.9448H521.593L509.535 12.5982L510.457 33.7013V45.9448H501.229V1.15454H513.287Z" fill="url(#paint12_linear_116:31)"/>
<path d="M582.257 36.7161H566.076L562.999 45.9448H553.186L569.859 1.15454H578.411L595.178 45.9448H585.364L582.257 36.7161ZM568.568 29.2407H579.765L574.135 12.4752L568.568 29.2407Z" fill="url(#paint13_linear_116:31)"/>
<path d="M608.59 30.1637V45.9448H599.361V1.15454H616.834C620.197 1.15454 623.15 1.7698 625.694 3.0003C628.258 4.2308 630.226 5.98427 631.601 8.26071C632.974 10.5166 633.662 13.0905 633.662 15.9821C633.662 20.3709 632.154 23.8368 629.139 26.3799C626.145 28.9024 621.992 30.1637 616.68 30.1637H608.59ZM608.59 22.6884H616.834C619.275 22.6884 621.13 22.1141 622.402 20.9656C623.694 19.8171 624.34 18.1766 624.34 16.0436C624.34 13.8492 623.694 12.0753 622.402 10.7217C621.11 9.36815 619.326 8.67087 617.049 8.62985H608.59V22.6884Z" fill="url(#paint14_linear_116:31)"/>
<defs>
<linearGradient id="paint0_linear_116:31" x1="317.74" y1="-41.8884" x2="317.74" y2="46.1064" gradientUnits="userSpaceOnUse">
<stop stop-color="#201854"/>
<stop offset="1" stop-color="#201854" stop-opacity="0"/>
</linearGradient>
<linearGradient id="paint1_linear_116:31" x1="317.74" y1="-41.8884" x2="317.74" y2="46.1064" gradientUnits="userSpaceOnUse">
<stop stop-color="#201854"/>
<stop offset="1" stop-color="#201854" stop-opacity="0"/>
</linearGradient>
<linearGradient id="paint2_linear_116:31" x1="317.74" y1="-41.8884" x2="317.74" y2="46.1064" gradientUnits="userSpaceOnUse">
<stop stop-color="#201854"/>
<stop offset="1" stop-color="#201854" stop-opacity="0"/>
</linearGradient>
<linearGradient id="paint3_linear_116:31" x1="317.74" y1="-41.8884" x2="317.74" y2="46.1064" gradientUnits="userSpaceOnUse">
<stop stop-color="#201854"/>
<stop offset="1" stop-color="#201854" stop-opacity="0"/>
</linearGradient>
<linearGradient id="paint4_linear_116:31" x1="317.74" y1="-41.8884" x2="317.74" y2="46.1064" gradientUnits="userSpaceOnUse">
<stop stop-color="#201854"/>
<stop offset="1" stop-color="#201854" stop-opacity="0"/>
</linearGradient>
<linearGradient id="paint5_linear_116:31" x1="317.74" y1="-41.8884" x2="317.74" y2="46.1064" gradientUnits="userSpaceOnUse">
<stop stop-color="#201854"/>
<stop offset="1" stop-color="#201854" stop-opacity="0"/>
</linearGradient>
<linearGradient id="paint6_linear_116:31" x1="317.74" y1="-41.8884" x2="317.74" y2="46.1064" gradientUnits="userSpaceOnUse">
<stop stop-color="#201854"/>
<stop offset="1" stop-color="#201854" stop-opacity="0"/>
</linearGradient>
<linearGradient id="paint7_linear_116:31" x1="317.74" y1="-41.8884" x2="317.74" y2="46.1064" gradientUnits="userSpaceOnUse">
<stop stop-color="#201854"/>
<stop offset="1" stop-color="#201854" stop-opacity="0"/>
</linearGradient>
<linearGradient id="paint8_linear_116:31" x1="317.74" y1="-41.8884" x2="317.74" y2="46.1064" gradientUnits="userSpaceOnUse">
<stop stop-color="#201854"/>
<stop offset="1" stop-color="#201854" stop-opacity="0"/>
</linearGradient>
<linearGradient id="paint9_linear_116:31" x1="317.74" y1="-41.8884" x2="317.74" y2="46.1064" gradientUnits="userSpaceOnUse">
<stop stop-color="#201854"/>
<stop offset="1" stop-color="#201854" stop-opacity="0"/>
</linearGradient>
<linearGradient id="paint10_linear_116:31" x1="317.74" y1="-41.8884" x2="317.74" y2="46.1064" gradientUnits="userSpaceOnUse">
<stop stop-color="#201854"/>
<stop offset="1" stop-color="#201854" stop-opacity="0"/>
</linearGradient>
<linearGradient id="paint11_linear_116:31" x1="317.74" y1="-41.8884" x2="317.74" y2="46.1064" gradientUnits="userSpaceOnUse">
<stop stop-color="#201854"/>
<stop offset="1" stop-color="#201854" stop-opacity="0"/>
</linearGradient>
<linearGradient id="paint12_linear_116:31" x1="317.74" y1="-41.8884" x2="317.74" y2="46.1064" gradientUnits="userSpaceOnUse">
<stop stop-color="#201854"/>
<stop offset="1" stop-color="#201854" stop-opacity="0"/>
</linearGradient>
<linearGradient id="paint13_linear_116:31" x1="317.74" y1="-41.8884" x2="317.74" y2="46.1064" gradientUnits="userSpaceOnUse">
<stop stop-color="#201854"/>
<stop offset="1" stop-color="#201854" stop-opacity="0"/>
</linearGradient>
<linearGradient id="paint14_linear_116:31" x1="317.739" y1="-41.8884" x2="317.739" y2="46.1064" gradientUnits="userSpaceOnUse">
<stop stop-color="#201854"/>
<stop offset="1" stop-color="#201854" stop-opacity="0"/>
</linearGradient>
</defs>
</svg>
