<svg width="25" height="25" viewBox="0 0 25 25" fill="none" xmlns="http://www.w3.org/2000/svg">
<g clip-path="url(#clip0_43:12)">
<path d="M2.08333 22.9167V5.20837H0V23.9584C0 24.2346 0.109747 24.4996 0.305097 24.6949C0.500447 24.8903 0.765399 25 1.04167 25H25V22.9167H2.08333Z" fill="#E05414"/>
<path d="M9.37508 14.5833C9.37508 14.307 9.26534 14.0421 9.06998 13.8467C8.87463 13.6514 8.60968 13.5416 8.33342 13.5416H5.20841C4.93215 13.5416 4.6672 13.6514 4.47185 13.8467C4.27649 14.0421 4.16675 14.307 4.16675 14.5833V21.875H9.37508V14.5833Z" fill="#E05414"/>
<path d="M16.6666 10.4167C16.6666 10.1404 16.5568 9.87545 16.3615 9.6801C16.1661 9.48475 15.9012 9.375 15.6249 9.375H12.4999C12.2236 9.375 11.9587 9.48475 11.7633 9.6801C11.568 9.87545 11.4583 10.1404 11.4583 10.4167V21.875H16.6666V10.4167Z" fill="#E05414"/>
<path d="M23.9583 6.25004C23.9583 5.97377 23.8486 5.70882 23.6532 5.51347C23.4579 5.31812 23.1929 5.20837 22.9167 5.20837H19.7917C19.5154 5.20837 19.2504 5.31812 19.0551 5.51347C18.8597 5.70882 18.75 5.97377 18.75 6.25004V21.875H23.9583V6.25004Z" fill="#E05414"/>
</g>
<defs>
<clipPath id="clip0_43:12">
<rect width="25" height="25" fill="white"/>
</clipPath>
</defs>
</svg>
