<svg width="25" height="25" viewBox="0 0 25 25" fill="none" xmlns="http://www.w3.org/2000/svg">
<g clip-path="url(#clip0_43:7)">
<path d="M12.5001 6.56848L3.584 13.9189C3.584 13.9293 3.58139 13.9445 3.57618 13.9653C3.57108 13.986 3.56836 14.001 3.56836 14.0116V21.4547C3.56836 21.7234 3.66661 21.9563 3.86306 22.1524C4.05946 22.3487 4.29202 22.4474 4.56082 22.4474H10.5151V16.4928H14.4852V22.4476H20.4395C20.7082 22.4476 20.9411 22.3491 21.1372 22.1524C21.3337 21.9565 21.4323 21.7235 21.4323 21.4547V14.0116C21.4323 13.9703 21.4266 13.9392 21.4166 13.9189L12.5001 6.56848Z" fill="#E05414"/>
<path d="M24.8276 12.2442L21.4318 9.42196V3.09522C21.4318 2.95059 21.3853 2.83164 21.292 2.73855C21.1995 2.64557 21.0805 2.59908 20.9356 2.59908H17.9584C17.8136 2.59908 17.6947 2.64557 17.6015 2.73855C17.5086 2.83164 17.4622 2.95064 17.4622 3.09522V6.11898L13.6786 2.95553C13.3482 2.68674 12.9553 2.55237 12.5004 2.55237C12.0455 2.55237 11.6527 2.68674 11.3219 2.95553L0.17231 12.2442C0.0689531 12.3267 0.012305 12.4378 0.00176829 12.5774C-0.00871407 12.7169 0.0274039 12.8387 0.110231 12.942L1.07162 14.0896C1.15445 14.1825 1.26286 14.2394 1.39728 14.2602C1.52138 14.2706 1.64549 14.2343 1.76959 14.1517L12.5001 5.20408L23.2306 14.1516C23.3135 14.2238 23.4219 14.2598 23.5563 14.2598H23.6029C23.7371 14.2393 23.8453 14.1821 23.9285 14.0893L24.89 12.942C24.9727 12.8385 25.0089 12.7168 24.9982 12.5772C24.9876 12.438 24.9307 12.3269 24.8276 12.2442Z" fill="#E05414"/>
</g>
<defs>
<clipPath id="clip0_43:7">
<rect width="25.0001" height="25" fill="white"/>
</clipPath>
</defs>
</svg>
