<svg width="25" height="25" viewBox="0 0 25 25" fill="none" xmlns="http://www.w3.org/2000/svg">
<path d="M15.1176 16.7651C14.5576 17.3251 13.3577 17.525 12.5026 17.525C11.6451 17.525 10.4476 17.3251 9.88762 16.7651C9.75506 16.6325 9.54258 16.6325 9.41021 16.7651C9.27765 16.8976 9.27765 17.1101 9.41021 17.2425C10.2977 18.13 12.0027 18.2 12.5026 18.2C13.0025 18.2 14.705 18.13 15.5952 17.2425C15.7251 17.1099 15.7251 16.8974 15.5952 16.7651C15.4626 16.6325 15.2501 16.6325 15.1176 16.7651Z" fill="#E05414"/>
<path d="M10.9376 13.8025C10.9376 13.085 10.3526 12.5 9.63505 12.5C8.91769 12.5 8.33252 13.085 8.33252 13.8025C8.33252 14.5199 8.91769 15.1051 9.63505 15.1051C10.3526 15.1051 10.9376 14.5201 10.9376 13.8025Z" fill="#E05414"/>
<path d="M12.5 0C5.5975 0 0 5.5975 0 12.5C0 19.4025 5.5975 25 12.5 25C19.4025 25 25 19.4025 25 12.5C25 5.5975 19.4025 0 12.5 0ZM19.7525 14.1674C19.78 14.3475 19.795 14.53 19.795 14.715C19.795 17.52 16.53 19.7926 12.5025 19.7926C8.47492 19.7926 5.20992 17.52 5.20992 14.715C5.20992 14.5275 5.22499 14.3425 5.25246 14.1624C4.6175 13.8775 4.175 13.2401 4.175 12.5C4.175 11.495 4.99001 10.6775 5.99747 10.6775C6.48746 10.6775 6.92997 10.87 7.25746 11.1851C8.52242 10.2726 10.2726 9.6899 12.22 9.63993C12.22 9.61494 13.13 5.27992 13.13 5.27992C13.1475 5.19505 13.1975 5.12238 13.27 5.07507C13.3425 5.02758 13.43 5.01251 13.5151 5.03006L16.5451 5.67493C16.7576 5.24502 17.1949 4.94747 17.7074 4.94747C18.4275 4.94747 19.01 5.52998 19.01 6.25C19.01 6.97002 18.4275 7.55253 17.7074 7.55253C17.0099 7.55253 16.445 7.00245 16.4125 6.31256L13.6999 5.73502L12.87 9.6426C14.7825 9.70993 16.5001 10.29 17.745 11.19C18.0725 10.8727 18.5175 10.6775 19.01 10.6775C20.0176 10.6775 20.8324 11.4925 20.8324 12.5C20.8324 13.245 20.385 13.8824 19.7525 14.1674Z" fill="#E05414"/>
<path d="M15.365 12.5C14.6475 12.5 14.0625 13.085 14.0625 13.8025C14.0625 14.5199 14.6475 15.1051 15.365 15.1051C16.0824 15.1051 16.6676 14.5199 16.6676 13.8025C16.6676 13.085 16.0826 12.5 15.365 12.5Z" fill="#E05414"/>
</svg>
